<svg width="448" height="455" viewBox="0 0 448 455" fill="none" xmlns="http://www.w3.org/2000/svg">
<path d="M318.763 365.364H211.872V453.681H318.763V365.364Z" fill="#B0BEC5"/>
<path opacity="0.1" d="M318.763 365.364H211.872V453.681H318.763V365.364Z" fill="black"/>
<path d="M361.12 365.374H318.763V453.692H361.12V365.374Z" fill="#B0BEC5"/>
<path opacity="0.2" d="M361.12 365.374H318.763V453.692H361.12V365.374Z" fill="black"/>
<path d="M358.193 447.601C355.061 441.324 351.955 435.026 348.874 428.706L339.684 409.705L330.612 390.628C327.609 384.258 324.632 377.867 321.679 371.454C324.825 377.738 327.935 384.036 331.009 390.349L340.188 409.351L349.26 428.428C352.277 434.797 355.254 441.188 358.193 447.601Z" fill="#B0BEC5"/>
<path d="M358.193 371.454C355.247 377.888 352.27 384.279 349.26 390.628L340.188 409.705L331.009 428.706C327.928 435.019 324.818 441.317 321.679 447.601C324.632 441.167 327.609 434.776 330.612 428.428L339.684 409.351L348.874 390.36C351.955 384.033 355.061 377.731 358.193 371.454Z" fill="#B0BEC5"/>
<path d="M272.877 384.451H271.194H269.918L269.199 382.982L268.181 384.451L266.797 381.427L265.5 384.451H261.768H260.063L259.441 382.435L258.862 384.451H257.757V365.374H272.877V384.451Z" fill="white"/>
<path d="M325.207 277.057H245.458V365.364H325.207V277.057Z" fill="#B0BEC5"/>
<path d="M366.385 277.057H325.207V365.374H366.385V277.057Z" fill="#B0BEC5"/>
<path opacity="0.1" d="M366.385 277.057H325.207V365.374H366.385V277.057Z" fill="black"/>
<g opacity="0.1">
<path d="M319.363 359.283C313.508 352.999 307.703 346.701 301.948 340.389L284.759 321.344L267.827 302.267C262.208 295.898 256.646 289.506 251.141 283.094C257.003 289.378 262.808 295.68 268.556 301.999L285.713 320.99L302.645 340.067C308.286 346.465 313.858 352.871 319.363 359.283Z" fill="black"/>
<path d="M319.363 283.137C313.851 289.571 308.289 295.962 302.678 302.31L285.745 321.344L268.588 340.346C262.869 346.658 257.064 352.957 251.173 359.24C256.685 352.806 262.247 346.415 267.859 340.067L284.759 321.033L301.916 302.042C307.685 295.715 313.501 289.414 319.363 283.137Z" fill="black"/>
</g>
<path d="M360.595 350.426H353.378V360.613H360.595V350.426Z" fill="white"/>
<path d="M0 453.724L55.9116 453.456L111.823 453.37L223.636 453.188L335.448 453.37L391.36 453.456L447.271 453.724L391.36 453.981L335.448 454.078L223.636 454.26L111.823 454.078L55.9116 453.981L0 453.724Z" fill="#263238"/>
<path d="M266.229 149.556C265.628 149.17 265.028 148.794 264.427 148.43L264.846 147.733L266.669 148.88L266.229 149.556Z" fill="#263238"/>
<path d="M240.042 257.004H239.27V256.2C240.702 256.232 242.134 256.178 243.56 256.039L243.646 256.843C242.477 256.929 241.254 257.004 240.042 257.004ZM247.999 256.125L247.828 255.342C249.222 255.026 250.592 254.607 251.924 254.087L252.213 254.838C250.842 255.364 249.433 255.787 247.999 256.103V256.125ZM256.181 252.908L255.784 252.211C257.017 251.491 258.19 250.673 259.291 249.766L259.806 250.377C258.671 251.324 257.458 252.174 256.181 252.918V252.908ZM262.969 247.331L262.379 246.785C263.341 245.727 264.227 244.602 265.028 243.417L265.693 243.868C264.871 245.094 263.96 246.259 262.969 247.353V247.331ZM267.88 240.05L267.151 239.707C267.762 238.416 268.261 237.074 268.642 235.697L269.414 235.911C269.024 237.336 268.511 238.725 267.88 240.061V240.05ZM270.197 231.557L269.392 231.493C269.392 230.914 269.467 230.324 269.467 229.756C269.464 228.96 269.418 228.166 269.328 227.375C268.493 227.319 267.663 227.215 266.84 227.064L266.98 226.271C268.289 226.507 269.617 226.629 270.947 226.635H271.226V227.44H270.936H270.132C270.218 228.216 270.261 228.996 270.261 229.777C270.272 230.356 270.239 230.968 270.197 231.568V231.557ZM275.633 226.903L275.451 226.121C276.83 225.794 278.166 225.305 279.429 224.662L279.794 225.381C278.473 226.055 277.076 226.569 275.633 226.914V226.903ZM262.572 225.906C261.186 225.406 259.841 224.797 258.551 224.083L258.948 223.386C260.196 224.076 261.498 224.664 262.84 225.145L262.572 225.906ZM268.341 223.075C267.871 221.734 267.252 220.45 266.497 219.247L267.173 218.818C267.967 220.069 268.615 221.408 269.103 222.807L268.341 223.075ZM283.483 222.904L282.968 222.292C284.056 221.373 285.051 220.35 285.938 219.236L286.56 219.74C285.644 220.906 284.613 221.977 283.483 222.936V222.904ZM254.916 221.617L254.691 221.402C253.629 220.47 252.784 219.317 252.213 218.025L252.964 217.724C253.487 218.908 254.263 219.962 255.237 220.813L255.452 221.006L254.916 221.617ZM289.048 216.137L288.362 215.719C289.113 214.475 289.81 213.199 290.421 211.944L291.15 212.298C290.528 213.574 289.82 214.872 289.048 216.137ZM263.827 215.976C262.847 215.028 261.769 214.186 260.61 213.467L260.449 213.36L260.867 212.674L261.039 212.781C262.234 213.535 263.345 214.416 264.352 215.408L263.827 215.976ZM253.179 213.907L252.514 213.456C252.973 212.811 253.581 212.287 254.287 211.928C254.993 211.57 255.775 211.388 256.567 211.397V212.202C255.908 212.198 255.257 212.35 254.668 212.647C254.079 212.943 253.568 213.375 253.179 213.907ZM292.855 208.256L292.104 207.977C292.601 206.631 293.027 205.26 293.38 203.87L294.153 204.063C293.807 205.484 293.377 206.885 292.866 208.256H292.855ZM295 199.752L294.195 199.645C294.387 198.222 294.498 196.79 294.528 195.355H295.332C295.303 196.826 295.192 198.294 295 199.752ZM294.378 191.066C294.249 189.627 294.045 188.195 293.767 186.777L294.56 186.616C294.84 188.052 295.048 189.502 295.182 190.959L294.378 191.066ZM292.716 182.637C292.308 181.286 291.826 179.924 291.268 178.573L292.019 178.273C292.576 179.635 293.091 181.029 293.488 182.401L292.716 182.637ZM289.499 174.649C288.855 173.394 288.137 172.129 287.354 170.885L288.04 170.466C288.812 171.721 289.542 173.008 290.185 174.284L289.499 174.649ZM284.984 167.292C284.158 166.134 283.268 164.987 282.346 163.872L282.968 163.357C283.901 164.483 284.802 165.652 285.638 166.82L284.984 167.292ZM279.494 160.622C278.518 159.55 277.488 158.553 276.438 157.566L276.984 156.976C278.057 157.984 279.129 159.025 280.073 160.075L279.494 160.622ZM273.199 154.692C272.127 153.781 270.958 152.88 269.811 152.022L270.282 151.379C271.451 152.237 272.609 153.148 273.714 154.081L273.199 154.692Z" fill="#263238"/>
<path d="M234.777 256.618C234.056 256.528 233.34 256.399 232.633 256.232L232.826 255.449C232.826 255.449 233.598 255.642 234.885 255.824L234.777 256.618Z" fill="#263238"/>
<path d="M223.957 255.02C223.453 259.309 232.214 261.711 232.879 256.092C233.544 250.473 224.461 250.699 223.957 255.02Z" fill="#263238"/>
<path d="M235.431 262.119C234.616 263.738 231.732 263.963 228.751 261.883C226.726 260.337 225.016 258.419 223.711 256.232C226.232 255.969 228.78 256.191 231.217 256.886C234.745 258.076 236.289 260.478 235.431 262.119Z" fill="#EBEBEB"/>
<path d="M223.743 256.232C225.437 256.993 227.099 257.819 228.762 258.634C230.424 259.449 232.064 260.317 233.684 261.218C231.989 260.457 230.327 259.631 228.665 258.816C227.003 258.001 225.362 257.133 223.743 256.232Z" fill="#263238"/>
<path d="M231.528 262.087C231.143 261.64 230.785 261.171 230.456 260.682C230.132 260.197 229.838 259.692 229.577 259.17C229.962 259.617 230.32 260.086 230.649 260.575C230.975 261.059 231.269 261.564 231.528 262.087Z" fill="#263238"/>
<path d="M227.925 258.323C228.515 258.17 229.113 258.048 229.716 257.958C230.324 257.872 230.936 257.819 231.55 257.797C230.362 258.093 229.148 258.269 227.925 258.323Z" fill="#263238"/>
<path d="M226.992 259.031C226.623 258.572 226.36 258.037 226.22 257.465C226.589 257.924 226.853 258.459 226.992 259.031Z" fill="#263238"/>
<path d="M236.847 250.892C236.429 249.122 233.683 248.243 230.306 249.573C227.974 250.61 225.863 252.085 224.086 253.916C226.496 254.75 229.045 255.114 231.592 254.988C235.206 254.688 237.276 252.715 236.847 250.892Z" fill="#EBEBEB"/>
<path d="M224.086 253.916C225.909 253.572 227.721 253.144 229.523 252.725C231.324 252.307 233.126 251.857 234.884 251.353C233.072 251.696 231.26 252.125 229.458 252.543C227.657 252.961 225.877 253.412 224.086 253.916Z" fill="#263238"/>
<path d="M233.019 250.012C232.552 250.344 232.105 250.702 231.678 251.085C231.253 251.485 230.848 251.908 230.467 252.35C230.938 252.024 231.386 251.666 231.807 251.278C232.235 250.88 232.64 250.457 233.019 250.012Z" fill="#263238"/>
<path d="M228.622 252.843C229.708 253.409 230.851 253.858 232.032 254.184C230.948 253.613 229.804 253.164 228.622 252.843Z" fill="#263238"/>
<path d="M227.925 251.943C227.692 252.117 227.479 252.319 227.292 252.543C227.107 252.773 226.946 253.021 226.81 253.283C227.044 253.104 227.256 252.899 227.443 252.672C227.637 252.453 227.8 252.207 227.925 251.943Z" fill="#263238"/>
<path d="M223.957 255.02C224.265 255.056 224.554 255.182 224.79 255.382C225.026 255.582 225.197 255.848 225.282 256.145C225.367 256.442 225.362 256.758 225.267 257.053C225.173 257.347 224.994 257.607 224.752 257.8C224.51 257.993 224.216 258.109 223.908 258.135C223.6 258.161 223.291 258.095 223.02 257.946C222.749 257.797 222.529 257.57 222.387 257.296C222.244 257.021 222.186 256.711 222.22 256.403C222.269 255.99 222.479 255.613 222.804 255.354C223.129 255.095 223.544 254.975 223.957 255.02Z" fill="#455A64"/>
<path d="M224.322 251.9C224.527 251.924 224.725 251.988 224.905 252.088C225.085 252.189 225.244 252.324 225.372 252.486C225.5 252.647 225.595 252.833 225.651 253.031C225.707 253.23 225.724 253.437 225.7 253.642C225.676 253.847 225.612 254.045 225.511 254.225C225.411 254.406 225.276 254.564 225.114 254.692C224.952 254.82 224.767 254.915 224.568 254.971C224.37 255.027 224.162 255.044 223.957 255.02C223.544 254.972 223.166 254.761 222.908 254.434C222.649 254.107 222.531 253.691 222.579 253.278C222.628 252.864 222.839 252.486 223.165 252.228C223.492 251.969 223.908 251.851 224.322 251.9Z" fill="#455A64"/>
<path d="M127.126 355.991C127.126 355.991 104.263 401.769 104.253 401.769C102.365 411.217 100.885 419.549 100.51 423.924C100.505 423.948 100.505 423.974 100.51 423.999C100.312 425.013 100.353 426.059 100.628 427.055C100.623 427.08 100.623 427.105 100.628 427.13C103.062 429.596 178.19 446.893 181.053 446.614C183.916 446.336 183.305 438.261 180.925 435.269C178.544 432.277 152.733 412.75 152.733 412.75L175.08 366.897L127.126 355.991Z" fill="#D3766A"/>
<path d="M179.917 446.657C177.096 446.936 103.094 429.629 100.671 427.173C100.667 427.148 100.667 427.123 100.671 427.098C100.39 426.103 100.346 425.057 100.542 424.042C100.533 424.018 100.533 423.991 100.542 423.967C100.907 419.592 102.397 411.26 104.274 401.802L109.743 390.842L157.151 403.839L152.776 412.825C152.776 412.825 177.439 432.309 179.831 435.344C182.222 438.379 182.748 446.389 179.917 446.657Z" fill="#EBEBEB"/>
<path d="M180.946 445.456C178.083 445.671 102.773 426.476 100.371 423.924C99.4484 422.969 101.604 411.828 104.596 398.445L104.692 398.027L153.419 409.876L153.194 410.691C153.194 410.691 178.726 430.937 181.075 434.025C183.423 437.114 183.798 445.253 180.946 445.456Z" fill="#263238"/>
<path d="M180.828 442.314C168.217 438.776 117.003 425.65 104.263 423.098C104.156 423.098 104.135 423.152 104.263 423.184C116.692 426.969 168.014 439.676 180.807 442.486C181.053 442.582 181.096 442.389 180.828 442.314Z" fill="white"/>
<path d="M157.237 411.881C152.476 409.672 146.17 408.879 141.452 411.474C141.27 411.57 141.452 411.828 141.581 411.817C146.748 411.493 151.936 411.723 157.054 412.503C157.13 412.508 157.204 412.487 157.266 412.444C157.327 412.4 157.372 412.337 157.393 412.265C157.415 412.193 157.411 412.116 157.382 412.046C157.354 411.976 157.302 411.918 157.237 411.881Z" fill="white"/>
<path d="M160.282 414.97C155.532 412.772 149.226 411.978 144.497 414.562C144.315 414.659 144.497 414.916 144.637 414.916C149.804 414.587 154.992 414.817 160.11 415.602C160.189 415.61 160.267 415.59 160.332 415.545C160.396 415.501 160.443 415.434 160.464 415.359C160.484 415.283 160.477 415.202 160.444 415.131C160.411 415.06 160.353 415.003 160.282 414.97Z" fill="white"/>
<path d="M163.338 418.069C158.577 415.86 152.272 415.066 147.553 417.651C147.371 417.758 147.553 418.015 147.693 418.005C152.857 417.681 158.041 417.911 163.156 418.691C163.231 418.695 163.306 418.674 163.367 418.631C163.429 418.588 163.474 418.525 163.495 418.452C163.516 418.38 163.512 418.303 163.484 418.233C163.455 418.164 163.404 418.106 163.338 418.069Z" fill="white"/>
<path d="M182.78 443.054C183.991 443.912 182.544 448.362 181.482 448.48C180.421 448.598 98.3976 427.302 97.1 426.626C95.8025 425.95 97.5826 421.082 99.2447 421.264C100.907 421.447 182.78 443.054 182.78 443.054Z" fill="#B0BEC5"/>
<path d="M114.976 409.63C110.215 405.512 103.802 412.911 108.542 417.039C113.282 421.168 119.748 413.758 114.976 409.63Z" fill="white"/>
<path d="M109.882 387.186L164.829 401.04C164.829 401.04 216.044 308.615 214.896 285.121C213.32 252.715 175.273 153.073 175.273 153.073H129.721C129.721 153.073 159.95 260.789 160.368 278.912C160.55 288.391 109.882 387.186 109.882 387.186Z" fill="#455A64"/>
<path d="M167.177 389.888C164.25 388.719 138.095 381.17 118.579 377.02C118.557 377.027 118.539 377.04 118.525 377.059C118.512 377.077 118.505 377.099 118.505 377.122C118.505 377.144 118.512 377.166 118.525 377.185C118.539 377.203 118.557 377.216 118.579 377.224C124.723 379.368 163.499 389.588 167.134 390.092C167.22 390.124 167.306 389.974 167.177 389.888Z" fill="#263238"/>
<path d="M164.143 255.771C160.518 240.565 156.636 225.402 152.561 210.336C148.486 195.27 144.122 180.064 139.329 165.115C138.75 163.282 138.138 161.47 137.549 159.647C137.532 159.588 137.492 159.539 137.439 159.51C137.385 159.481 137.323 159.474 137.264 159.491C137.206 159.508 137.157 159.548 137.128 159.601C137.099 159.654 137.092 159.717 137.109 159.775C141.398 174.67 145.688 189.533 149.752 204.481C153.816 219.429 157.687 234.421 161.333 249.519C162.244 253.251 163.135 256.972 164.003 260.714C165.013 264.55 165.793 268.442 166.341 272.371C166.792 276.124 166.533 279.929 165.579 283.587C164.545 287.182 163.192 290.677 161.537 294.032C154.967 308.294 148.401 322.559 141.838 336.829C135.275 351.134 134.214 354.394 127.898 368.816C127.115 370.607 126.332 372.398 125.581 374.178C125.581 374.296 125.699 374.403 125.764 374.275C132.948 360.141 134.053 356.742 140.776 342.351C147.5 327.96 154.181 313.398 160.85 298.911C163.853 292.37 167.381 285.7 167.831 278.386C168.282 270.751 165.88 263.095 164.143 255.771Z" fill="#263238"/>
<path d="M166.63 374.092L168.389 424.492C168.679 434.143 169.097 442.582 169.729 446.925C169.724 446.95 169.724 446.976 169.729 447C169.765 448.031 170.037 449.04 170.523 449.949L170.587 450.014C173.515 451.869 250.605 451.826 253.297 450.914C255.988 450.003 253.608 442.282 250.616 439.891C247.624 437.5 218.092 424.321 218.092 424.321L215.851 373.974L166.63 374.092Z" fill="#D3766A"/>
<path d="M168.024 414.176C168.024 414.176 168.389 424.492 168.389 424.524C168.679 434.175 169.097 442.615 169.729 446.958C169.724 446.982 169.724 447.008 169.729 447.033C169.876 448.044 170.142 449.034 170.523 449.982L170.587 450.046C173.515 451.901 250.605 451.858 253.297 450.947C255.988 450.035 253.608 442.314 250.616 439.923C247.624 437.532 218.092 424.353 218.092 424.353L217.867 413.855L168.024 414.176Z" fill="#EBEBEB"/>
<path d="M253.339 450.861C250.616 451.729 172.914 450.528 169.976 448.598C168.904 447.88 168.367 436.556 168.174 422.862V422.433L218.317 422.648V423.506C218.317 423.506 247.86 437.264 250.852 439.719C253.843 442.175 256.074 450.024 253.339 450.861Z" fill="#263238"/>
<path d="M252.514 447.88C239.421 447.354 186.554 446.475 173.568 446.958C173.461 446.958 173.461 447.033 173.568 447.033C186.533 447.837 239.41 448.298 252.514 448.105C252.782 448.041 252.793 447.88 252.514 447.88Z" fill="white"/>
<path d="M222.499 423.699C217.363 422.626 211.036 423.345 207.047 426.916C206.886 427.055 207.047 427.269 207.261 427.227C212.212 425.716 217.309 424.734 222.467 424.299C222.529 424.279 222.584 424.241 222.623 424.189C222.663 424.138 222.686 424.075 222.69 424.01C222.693 423.945 222.677 423.88 222.643 423.825C222.609 423.769 222.559 423.725 222.499 423.699Z" fill="white"/>
<path d="M226.188 425.993C221.041 424.921 214.725 425.65 210.736 429.264C210.575 429.403 210.736 429.618 210.939 429.564C215.893 428.052 220.994 427.074 226.156 426.648C226.233 426.638 226.305 426.601 226.358 426.544C226.412 426.486 226.443 426.412 226.447 426.334C226.45 426.256 226.427 426.179 226.379 426.117C226.332 426.054 226.264 426.011 226.188 425.993Z" fill="white"/>
<path d="M229.866 428.299C224.73 427.227 218.414 427.945 214.414 431.516C214.264 431.655 214.414 431.87 214.628 431.827C219.579 430.317 224.676 429.336 229.834 428.899C229.896 428.88 229.951 428.841 229.99 428.79C230.03 428.738 230.054 428.675 230.057 428.61C230.061 428.545 230.044 428.48 230.01 428.425C229.976 428.369 229.926 428.325 229.866 428.299Z" fill="white"/>
<path d="M254.573 448.094C255.956 448.652 255.581 453.317 254.573 453.67C253.565 454.024 168.786 452.341 167.402 451.998C166.019 451.654 166.577 446.496 168.26 446.25C169.944 446.003 254.573 448.094 254.573 448.094Z" fill="#B0BEC5"/>
<path d="M180.871 431.312C175.284 428.406 170.759 437.092 176.356 439.998C181.954 442.904 186.469 434.218 180.871 431.312Z" fill="white"/>
<path d="M174.705 152.987C174.501 153.92 163.145 198.819 161.73 199.655C160.121 200.61 202.993 258.291 208.076 286.611C211.293 304.723 218.799 410.294 218.799 410.294H164.132C164.132 410.294 158.77 320.636 156.99 291.093C156.293 279.63 113.292 226.635 109.207 191.302C107.92 180.171 115.919 152.944 115.919 152.944L174.705 152.987Z" fill="#455A64"/>
<path d="M162.749 367.637C162.105 352.785 161.515 337.901 160.432 323.071C159.821 314.663 158.62 306.524 157.784 298.149C157.784 297.71 157.387 297.603 157.398 298.053C157.784 312.969 159.017 327.724 159.81 342.63C160.604 357.535 161.365 361.01 162.212 375.872C162.684 384.28 163.102 392.687 163.757 401.083C163.764 401.104 163.777 401.123 163.796 401.136C163.814 401.15 163.836 401.157 163.858 401.157C163.881 401.157 163.903 401.15 163.921 401.136C163.94 401.123 163.953 401.104 163.96 401.083C163.992 386.156 163.403 382.542 162.749 367.637Z" fill="#263238"/>
<path d="M208.13 287.319C207.662 283.397 206.902 279.515 205.856 275.705C204.73 272.013 203.247 268.44 201.428 265.036C197.707 257.894 193.471 250.988 189.385 244.05C185.3 237.112 181.043 230.024 176.732 223.097C174.308 219.208 171.874 215.322 169.429 211.44C166.941 207.526 164.314 203.687 161.751 199.827C161.731 199.794 161.699 199.771 161.662 199.762C161.625 199.753 161.586 199.759 161.553 199.779C161.52 199.799 161.497 199.831 161.488 199.868C161.479 199.905 161.485 199.944 161.505 199.977C165.687 206.99 169.826 214.014 174.008 221.027C178.19 228.04 182.308 235.075 186.426 242.109C190.543 249.144 194.543 255.964 198.425 262.998C200.337 266.338 201.982 269.823 203.347 273.421C204.617 277.15 205.539 280.987 206.103 284.885C207.561 293.967 208.752 303.114 210.575 312.111C210.582 312.133 210.595 312.151 210.614 312.165C210.632 312.178 210.654 312.185 210.677 312.185C210.699 312.185 210.721 312.178 210.739 312.165C210.758 312.151 210.771 312.133 210.778 312.111C210.21 303.833 209.224 295.544 208.13 287.319Z" fill="#263238"/>
<path d="M213.985 400.922C210.864 400.515 187.048 399.689 167.124 400.547C166.995 400.547 167.006 400.74 167.124 400.751C173.611 401.319 210.296 401.576 213.953 401.147C214.049 401.137 214.092 400.944 213.985 400.922Z" fill="#263238"/>
<path d="M168.861 196.588C163.291 198.618 157.909 201.129 152.776 204.095C152.732 204.115 152.697 204.151 152.68 204.197C152.663 204.242 152.665 204.292 152.685 204.336C152.705 204.38 152.741 204.415 152.786 204.432C152.832 204.449 152.882 204.447 152.926 204.427C158.352 202.09 163.896 199.859 169.193 197.232C169.279 197.188 169.343 197.112 169.372 197.02C169.401 196.929 169.393 196.829 169.349 196.744C169.305 196.659 169.228 196.594 169.137 196.565C169.045 196.536 168.946 196.544 168.861 196.588Z" fill="#263238"/>
<path d="M170.501 159.421C170.501 159.239 170.158 159.196 170.158 159.421C170.159 165.481 169.855 171.536 169.247 177.565C168.989 180.364 166.738 195.795 161.891 194.723C161.076 194.53 160.668 193.736 160.539 192.503C160.553 190.902 160.769 189.31 161.183 187.763C161.719 184.546 162.148 181.329 162.427 178.016C162.995 171.927 162.931 165.796 162.234 159.722C162.225 159.687 162.205 159.657 162.176 159.635C162.148 159.614 162.114 159.602 162.078 159.602C162.043 159.602 162.008 159.614 161.98 159.635C161.952 159.657 161.932 159.687 161.923 159.722C162.063 168.161 161.569 176.599 160.443 184.964C159.832 188.986 157.805 195.044 162.019 195.688C166.234 196.331 169.075 186.176 169.59 183.399C170.931 175.48 171.238 167.42 170.501 159.421Z" fill="#263238"/>
<path d="M162.019 195.055C161.59 196.102 161.231 197.177 160.947 198.272C160.638 199.113 160.486 200.003 160.497 200.899C160.502 200.936 160.518 200.97 160.543 200.997C160.568 201.024 160.601 201.043 160.637 201.051C160.673 201.06 160.711 201.057 160.745 201.043C160.779 201.029 160.809 201.005 160.829 200.974C161.336 200.184 161.715 199.319 161.955 198.411C162.33 197.414 162.716 196.438 163.027 195.43C163.077 195.297 163.072 195.149 163.012 195.019C162.953 194.889 162.845 194.788 162.711 194.739C162.577 194.689 162.429 194.694 162.3 194.754C162.17 194.813 162.069 194.921 162.019 195.055Z" fill="#263238"/>
<path d="M164.303 305.506C163.789 297.871 163.821 289.817 160.572 282.74C158.846 279.291 156.86 275.979 154.631 272.832C152.415 269.443 150.227 266.037 148.068 262.612C139.489 248.919 131.211 234.946 123.672 220.63C120.037 213.735 116.692 206.615 114.869 199.001C113.091 190.989 112.753 182.725 113.871 174.595C114.129 172.568 114.408 170.552 114.74 168.536C114.741 168.509 114.733 168.482 114.716 168.46C114.7 168.438 114.676 168.423 114.649 168.417C114.623 168.41 114.595 168.414 114.57 168.426C114.546 168.438 114.526 168.458 114.515 168.483C112.75 176.214 112.147 184.165 112.724 192.074C113.549 199.636 115.679 206.997 119.019 213.832C122.343 221.027 126.3 227.954 130.203 234.849C134.228 241.998 138.371 249.044 142.631 255.985C146.921 262.912 151.339 269.7 155.768 276.52C158.027 279.737 159.787 283.276 160.99 287.019C161.965 290.924 162.526 294.92 162.663 298.943C163.735 315.822 168.024 371.937 169.547 388.73C169.729 390.874 169.922 393.019 170.126 395.164C170.12 395.186 170.119 395.209 170.123 395.232C170.128 395.255 170.137 395.276 170.151 395.295C170.165 395.313 170.184 395.328 170.204 395.338C170.225 395.348 170.248 395.354 170.271 395.354C170.294 395.354 170.317 395.348 170.337 395.338C170.358 395.328 170.376 395.313 170.39 395.295C170.404 395.276 170.414 395.255 170.418 395.232C170.423 395.209 170.422 395.186 170.416 395.164C169.772 378.307 165.408 322.331 164.303 305.506Z" fill="#263238"/>
<path d="M138.063 167.786C138.063 167.668 137.87 167.71 137.87 167.786C137.709 172.472 137.87 177.319 136.037 181.726C134.385 185.79 131.061 188.642 127.34 190.776C125.176 191.991 122.946 193.083 120.659 194.047C120.498 194.122 120.563 194.379 120.745 194.326C125.034 192.953 129.463 191.463 133.056 188.589C136.894 185.501 138.578 181.029 138.76 176.203C138.826 173.381 138.592 170.559 138.063 167.786Z" fill="#263238"/>
<path d="M161.858 91.403C167.992 110.233 184.56 142.307 190.479 146.178C195.723 149.599 220.397 145.781 231.228 143.175C235.26 142.2 226.188 111.466 221.888 112.592C216.73 113.944 201.363 117.407 200.248 116.549C199.133 115.691 183.638 96.6038 172.657 85.3658C162.663 75.1893 159.542 84.2827 161.858 91.403Z" fill="#D3766A"/>
<path d="M228.858 143.411C230.928 143.154 248.439 142.339 256.471 137.975C260.76 135.648 271.709 127.948 270.615 125.182C269.617 122.662 266.1 124.034 266.1 124.034C266.1 124.034 270.936 120.528 269.521 117.032C268.105 113.536 262.261 116.163 262.261 116.163C262.261 116.163 266.969 112.196 265.307 108.818C263.645 105.44 258.219 109.054 258.219 109.054C258.219 109.054 262.69 105.633 260.149 103.424C257.082 100.765 249.543 108.014 244.45 109.708C243.292 110.094 220.472 115.863 220.472 115.863L228.858 143.411Z" fill="#D3766A"/>
<path d="M258.026 108.957C252.471 114.265 249.114 115.627 241.694 117.128C241.554 117.128 241.565 117.386 241.694 117.364C249.093 116.56 253.543 115.456 258.272 109.215C258.53 108.904 258.283 108.7 258.026 108.957Z" fill="#263238"/>
<path d="M262.079 116.035C255.827 121.053 252.203 122.554 244.546 124.699C244.439 124.699 244.482 124.924 244.6 124.903C252.278 123.423 256.696 122.222 262.283 116.388C262.54 116.131 262.369 115.809 262.079 116.035Z" fill="#263238"/>
<path d="M265.725 124.12C259.291 128.538 255.42 130.372 247.72 131.498C247.683 131.498 247.648 131.512 247.622 131.539C247.596 131.565 247.581 131.6 247.581 131.637C247.581 131.674 247.596 131.71 247.622 131.736C247.648 131.762 247.683 131.776 247.72 131.776C255.688 131.39 260.588 129.149 265.811 124.334C266.197 124.034 266.122 123.852 265.725 124.12Z" fill="#263238"/>
<path d="M214.489 116.85C214.489 116.85 220.869 109.633 224.365 107.081C227.861 104.528 244.418 99.8101 245.64 103.327C247.216 107.874 238.198 112.474 233.49 114.147C233.49 114.147 237.147 124.656 231.346 129.353C225.544 134.05 214.489 116.85 214.489 116.85Z" fill="#D3766A"/>
<path d="M245.672 104.732C244.117 109.912 237.791 111.713 233.34 113.675C233.275 113.704 233.216 113.747 233.17 113.802C233.124 113.857 233.091 113.922 233.075 113.992C233.058 114.061 233.058 114.134 233.074 114.204C233.091 114.274 233.123 114.339 233.169 114.394C234.413 118.898 234.842 125.611 231.689 129.407C231.603 129.514 231.743 129.664 231.85 129.567C235.785 125.964 235.893 119.327 234.22 114.48C238.82 112.539 245.082 110.448 245.715 104.754C245.726 104.732 245.683 104.732 245.672 104.732Z" fill="#263238"/>
<path d="M228.847 148.698L220.762 111.874L200.752 115.509C192.86 106.469 177.086 88.4005 170.727 82.9744C163.22 76.6048 158.309 81.3874 161.076 91.0384C167.327 113.096 185.611 145.481 190.393 148.537C197.331 152.987 228.847 148.698 228.847 148.698Z" fill="#B0BEC5"/>
<path opacity="0.1" d="M200.28 126.715C201.271 126.93 202.28 127.049 203.294 127.069C205.438 127.358 206.382 130.522 204.43 131.723C203.405 132.354 202.247 132.736 201.047 132.839C199.848 132.941 198.641 132.761 197.524 132.313C195.38 131.476 193.567 129.396 194.029 126.951C194.108 126.495 194.305 126.068 194.599 125.71C194.893 125.353 195.274 125.078 195.706 124.912C196.138 124.745 196.605 124.694 197.063 124.762C197.521 124.83 197.953 125.015 198.318 125.3C198.912 125.849 199.571 126.325 200.28 126.715ZM194.747 117.954C193.975 121.6 199.615 124.731 202.5 122.79C202.733 122.614 202.922 122.388 203.055 122.128C203.188 121.869 203.261 121.583 203.269 121.291C203.276 120.999 203.217 120.71 203.097 120.444C202.977 120.178 202.799 119.943 202.575 119.756C201.728 119.069 201.02 118.962 200.27 118.34C200.007 118.135 199.776 117.893 199.583 117.622C199.158 117.035 198.613 116.546 197.985 116.185C197.659 116.045 197.305 115.982 196.95 115.999C196.595 116.016 196.249 116.113 195.937 116.283C195.625 116.454 195.356 116.693 195.15 116.982C194.944 117.271 194.806 117.604 194.747 117.954ZM185.75 118.147C184.592 119.659 185.461 121.932 186.479 123.305C186.938 123.989 187.57 124.538 188.31 124.898C189.05 125.258 189.873 125.415 190.694 125.353C190.993 125.311 191.273 125.183 191.501 124.985C191.73 124.788 191.896 124.528 191.979 124.238C192.063 123.947 192.062 123.639 191.974 123.35C191.887 123.061 191.718 122.803 191.487 122.608C190.842 122.118 190.327 121.477 189.986 120.742C189.482 119.605 189.149 118.136 187.841 117.643C187.484 117.496 187.089 117.466 186.714 117.556C186.338 117.647 186.001 117.854 185.75 118.147ZM209.502 141.996C207.99 145.052 212.591 148.526 215.379 147.926C216.312 147.722 217.212 146.5 216.387 145.62C215.722 144.913 214.928 144.355 214.306 143.604C213.545 142.693 213.127 141.524 211.937 141.063C211.489 140.876 210.986 140.868 210.533 141.042C210.079 141.215 209.71 141.557 209.502 141.996ZM166.309 104.518C166.045 104.016 165.68 103.574 165.236 103.22C165.837 104.757 166.47 106.298 167.134 107.842C167.17 106.679 166.884 105.529 166.309 104.518ZM172.282 101.301C172.072 98.6518 171.037 96.1353 169.322 94.1053C168.035 92.4432 165.805 89.816 163.446 90.3843C163.195 90.4627 162.976 90.6197 162.821 90.8321C162.667 91.0446 162.585 91.3012 162.588 91.5639C162.438 93.3761 164.518 95.3171 165.419 96.7647C166.491 98.5877 167.338 100.604 168.496 102.416C168.738 102.789 169.094 103.073 169.511 103.226C169.928 103.38 170.384 103.394 170.81 103.268C171.236 103.141 171.609 102.88 171.874 102.523C172.14 102.167 172.282 101.734 172.282 101.29V101.301ZM171.585 112.828C172.004 112.807 172.405 112.651 172.729 112.385C173.053 112.119 173.283 111.755 173.386 111.348C173.553 110.516 173.497 109.654 173.225 108.85C173.065 108.084 172.693 107.378 172.153 106.813C171.959 106.633 171.723 106.508 171.466 106.448C171.209 106.387 170.941 106.395 170.688 106.47C170.435 106.544 170.206 106.683 170.023 106.873C169.84 107.063 169.709 107.297 169.644 107.552C169.558 108.179 169.558 108.814 169.644 109.44C169.644 109.708 169.644 109.976 169.644 110.255C169.638 110.659 169.681 111.062 169.772 111.456C169.888 111.847 170.126 112.192 170.453 112.437C170.779 112.682 171.176 112.816 171.585 112.818V112.828Z" fill="#030402"/>
<path d="M221.845 145.481C220.923 143.336 218.628 133.814 218.124 131.444C217.62 129.074 215.754 119.488 215.207 117.053C215.207 116.914 215.357 116.839 215.389 116.968C215.969 119.37 218.553 128.828 219.121 131.187C219.69 133.546 221.823 143.057 221.974 145.449C221.976 145.457 221.976 145.466 221.975 145.475C221.974 145.483 221.971 145.491 221.966 145.499C221.957 145.514 221.942 145.525 221.925 145.529C221.908 145.533 221.89 145.531 221.875 145.522C221.86 145.513 221.849 145.498 221.845 145.481Z" fill="#263238"/>
<path opacity="0.1" d="M203.261 150.542C197.632 150.542 192.688 150.006 190.393 148.537C185.579 145.427 167.295 113.15 161.001 91.0492C159.414 85.5159 160.368 81.5697 162.877 80.4223L203.261 150.542Z" fill="black"/>
<path d="M112.52 158.038C112.66 158.242 179.573 166.82 180.292 166.198C180.67 164.336 180.939 162.452 181.096 160.558C181.096 160.558 174.962 87.7035 171.788 83.4248C169.011 79.6931 160.582 76.9908 154.845 79.425C142.803 84.5294 113.968 149.62 114.279 152.344C114.257 152.312 112.349 157.781 112.52 158.038Z" fill="#B0BEC5"/>
<path opacity="0.1" d="M136.648 149.17C137.68 149.671 138.757 150.073 139.865 150.371C142.095 151.261 142.299 154.982 139.865 155.732C138.571 156.143 137.199 156.245 135.858 156.031C134.518 155.817 133.246 155.292 132.144 154.499C129.999 152.998 128.616 150.21 129.774 147.722C129.987 147.249 130.317 146.838 130.735 146.529C131.152 146.221 131.641 146.025 132.156 145.96C132.671 145.896 133.194 145.965 133.674 146.16C134.155 146.356 134.577 146.673 134.9 147.079C135.5 147.776 135.865 148.698 136.648 149.17ZM132.98 138.093C131.147 141.878 136.455 146.821 140.133 145.481C140.441 145.358 140.716 145.165 140.937 144.917C141.158 144.669 141.318 144.374 141.406 144.054C141.493 143.734 141.505 143.398 141.44 143.072C141.376 142.747 141.237 142.441 141.034 142.178C140.304 141.202 139.554 140.891 138.889 140.033C138.659 139.737 138.475 139.408 138.342 139.058C138.025 138.309 137.562 137.631 136.98 137.063C135.704 135.83 133.656 136.698 132.98 138.093ZM126.782 134.061C124.777 134.811 124.262 137.513 124.412 139.422C124.443 140.349 124.72 141.252 125.213 142.038C125.707 142.823 126.4 143.464 127.222 143.894C127.532 144.032 127.876 144.078 128.212 144.026C128.547 143.973 128.86 143.824 129.113 143.597C129.366 143.371 129.548 143.075 129.637 142.747C129.726 142.419 129.717 142.073 129.613 141.749C129.273 140.892 129.155 139.962 129.27 139.047C129.452 137.674 129.999 136.066 129.088 134.833C128.834 134.477 128.474 134.211 128.06 134.072C127.646 133.934 127.199 133.93 126.782 134.061ZM148.765 146.821C148.258 146.778 147.753 146.93 147.354 147.247C146.955 147.564 146.693 148.022 146.62 148.526C146.566 149.068 146.702 149.612 147.005 150.064C147.309 150.517 147.76 150.849 148.283 151.003C149.014 151.245 149.803 151.245 150.535 151.003C150.909 150.855 151.217 150.578 151.403 150.221C151.618 149.875 151.706 149.466 151.65 149.063C151.59 148.687 151.418 148.337 151.156 148.062C150.893 147.786 150.553 147.596 150.181 147.518C150.113 147.429 150.034 147.35 149.945 147.282C149.604 147.018 149.195 146.858 148.765 146.821ZM132.326 120.946C130.525 122.79 131.254 126.983 133.313 128.399C133.578 128.6 133.891 128.729 134.221 128.772C134.551 128.815 134.887 128.771 135.195 128.644C135.503 128.517 135.772 128.312 135.976 128.049C136.18 127.786 136.312 127.474 136.358 127.144C136.39 126.719 136.39 126.293 136.358 125.868C136.358 125.407 136.294 125.117 136.358 124.796C136.519 123.879 136.551 122.944 136.455 122.018C136.371 121.579 136.165 121.173 135.86 120.846C135.554 120.52 135.163 120.287 134.73 120.175C134.298 120.062 133.842 120.075 133.416 120.212C132.991 120.348 132.613 120.603 132.326 120.946ZM120.691 147.626C118.214 150.564 122.3 155.604 125.506 155.7C126.579 155.7 127.898 154.628 127.233 153.448C126.697 152.505 125.978 151.668 125.506 150.692C124.927 149.491 124.788 148.087 123.608 147.272C123.168 146.948 122.622 146.805 122.08 146.871C121.538 146.937 121.041 147.206 120.691 147.626ZM179.852 146.693C179.449 146.753 179.072 146.932 178.77 147.207C178.469 147.482 178.255 147.84 178.158 148.237C177.815 149.427 177.772 150.489 176.882 151.454C175.919 152.212 175.054 153.087 174.308 154.06C174.184 154.302 174.125 154.574 174.136 154.846C174.148 155.119 174.23 155.384 174.375 155.615C174.52 155.846 174.722 156.036 174.962 156.166C175.203 156.295 175.472 156.36 175.745 156.354C177.618 156.124 179.332 155.189 180.538 153.738C180.324 151.7 180.11 149.309 179.863 146.65L179.852 146.693ZM174.491 137.846C173.89 139.304 173.997 140.956 173.493 142.478C173.051 143.874 172.525 145.242 171.917 146.575C171.467 147.54 172.367 149.063 173.536 148.548C175.437 147.818 176.992 146.397 177.89 144.569C178.705 142.886 179.606 140.055 178.823 138.264C178.04 136.473 175.381 135.69 174.469 137.803L174.491 137.846ZM168.378 152.462C167.487 153.613 166.347 154.548 165.043 155.196C164.733 155.293 164.446 155.454 164.202 155.67C163.959 155.885 163.764 156.15 163.631 156.447C163.497 156.743 163.428 157.065 163.429 157.39C163.429 157.716 163.499 158.037 163.633 158.333C163.767 158.63 163.962 158.894 164.206 159.109C164.45 159.325 164.737 159.485 165.048 159.581C165.359 159.677 165.686 159.705 166.009 159.665C166.332 159.624 166.642 159.516 166.92 159.346C168.029 158.871 169.021 158.157 169.825 157.257C170.629 156.357 171.226 155.291 171.574 154.135C172.078 152.28 169.568 151.068 168.357 152.419L168.378 152.462ZM158.577 99.9174C159.176 100.044 159.801 99.9341 160.321 99.6102C160.841 99.2864 161.215 98.7739 161.365 98.1802C161.966 95.8746 159.907 93.5048 158.277 92.0679C156.647 90.6309 154.352 89.3227 152.068 90.0626C151.764 90.1611 151.49 90.3357 151.272 90.5698C151.055 90.8038 150.9 91.0896 150.824 91.4001C150.748 91.7105 150.752 92.0352 150.837 92.3435C150.921 92.6518 151.083 92.9334 151.307 93.1616C152.304 94.4055 153.687 95.3063 154.749 96.5288C155.81 97.7512 156.69 99.5635 158.556 99.8745L158.577 99.9174ZM166.802 109.021C167.703 107.724 167.006 105.804 166.362 104.571C166.02 103.891 165.487 103.325 164.829 102.941C164.386 102.658 163.849 102.561 163.335 102.671C162.821 102.782 162.371 103.091 162.084 103.531C161.791 104.141 161.745 104.84 161.955 105.483C162.044 105.819 162.167 106.146 162.32 106.459V106.555V106.641C162.511 107.665 162.945 108.628 163.585 109.45C163.806 109.673 164.076 109.842 164.374 109.943C164.671 110.045 164.988 110.076 165.3 110.034C165.611 109.993 165.909 109.88 166.17 109.704C166.43 109.528 166.647 109.295 166.802 109.021ZM172.335 101.344C172.125 98.6946 171.09 96.1782 169.375 94.1482C168.089 92.4861 165.858 89.8588 163.499 90.4272C163.248 90.5055 163.029 90.6626 162.875 90.875C162.72 91.0875 162.638 91.3441 162.641 91.6068C162.491 93.419 164.571 95.3599 165.472 96.8076C166.545 98.6306 167.392 100.647 168.55 102.459C168.802 102.811 169.159 103.074 169.57 103.212C169.981 103.349 170.425 103.353 170.838 103.224C171.252 103.094 171.614 102.838 171.873 102.49C172.132 102.143 172.275 101.723 172.282 101.29L172.335 101.344ZM164.239 119.702C164.631 119.788 165.037 119.788 165.429 119.702C166.024 119.519 166.526 119.116 166.834 118.576C167.122 118.001 167.266 117.364 167.252 116.721C167.233 116.112 167.067 115.516 166.77 114.984L166.416 114.544L165.944 114.201C165.649 114.049 165.323 113.965 164.991 113.956C164.659 113.947 164.33 114.013 164.027 114.149C163.724 114.285 163.455 114.487 163.241 114.742C163.028 114.996 162.874 115.295 162.791 115.616C162.613 116.241 162.487 116.879 162.416 117.525L162.513 118.115C162.588 118.411 162.735 118.684 162.941 118.908C163.265 119.283 163.702 119.542 164.185 119.648L164.239 119.702ZM171.638 112.871C172.057 112.85 172.458 112.694 172.782 112.428C173.107 112.161 173.337 111.798 173.44 111.391C173.606 110.559 173.551 109.697 173.279 108.893C173.118 108.127 172.747 107.421 172.206 106.855C172.013 106.676 171.776 106.551 171.519 106.49C171.263 106.43 170.995 106.438 170.742 106.513C170.489 106.587 170.259 106.726 170.076 106.916C169.893 107.106 169.763 107.34 169.697 107.595C169.611 108.221 169.611 108.856 169.697 109.483C169.697 109.751 169.697 110.019 169.697 110.298C169.692 110.702 169.735 111.105 169.826 111.499C169.946 111.874 170.18 112.202 170.495 112.439C170.81 112.675 171.191 112.807 171.584 112.818L171.638 112.871Z" fill="#030402"/>
<path d="M167.874 94.8452C163.789 94.4699 158.556 85.7411 157.558 80.1971C157.494 79.8111 159.124 76.5834 160.915 72.5728C161.987 70.1386 163.145 67.3934 164.003 64.8198L178.844 74.1599C176.842 77.0733 175.203 80.2207 173.965 83.5321C173.854 83.8817 173.775 84.2406 173.729 84.6044C173.733 84.6651 173.733 84.726 173.729 84.7867C173.354 86.9314 171.831 95.2098 167.874 94.8452Z" fill="#D3766A"/>
<path d="M173.729 84.6259C173.733 84.6866 173.733 84.7475 173.729 84.8082C173.157 84.6963 172.595 84.5421 172.046 84.3471C162.759 81.0014 164.4 68.8197 165.054 65.4525L168.754 67.7902L178.887 74.2242C176.885 77.1364 175.25 80.2842 174.019 83.5964C173.891 83.9301 173.794 84.2746 173.729 84.6259Z" fill="#263238"/>
<path d="M165.558 47.6302C162.491 53.1528 161.955 70.8892 165.354 75.5968C170.266 82.4168 180.131 85.0762 186.383 78.8138C192.442 72.68 192.72 49.5497 188.774 45.0888C182.941 38.4618 170.083 39.4698 165.558 47.6302Z" fill="#D3766A"/>
<path d="M179.799 61.9674C179.799 61.9674 179.702 61.9674 179.702 62.0746C179.702 63.2971 179.488 64.6911 178.372 65.0557V65.1308C179.734 64.9807 179.992 63.1255 179.799 61.9674Z" fill="#263238"/>
<path d="M178.758 60.6591C176.796 60.4446 176.507 64.3694 178.319 64.5731C180.131 64.7769 180.399 60.8414 178.758 60.6591Z" fill="#263238"/>
<path d="M186.833 62.3856C186.833 62.3856 186.919 62.45 186.919 62.5036C186.779 63.7153 186.833 65.1308 187.895 65.6133C187.895 65.6133 187.895 65.6991 187.895 65.6884C186.554 65.3882 186.511 63.5116 186.833 62.3856Z" fill="#263238"/>
<path d="M188.023 61.206C189.986 61.206 189.825 65.1415 188.023 65.1415C186.222 65.1415 186.372 61.1953 188.023 61.206Z" fill="#263238"/>
<path d="M180.346 59.8656C179.799 59.9836 179.273 59.9943 178.737 60.0586C178.182 60.2039 177.594 60.1625 177.064 59.9407C176.91 59.839 176.794 59.6893 176.734 59.5147C176.674 59.3401 176.673 59.1506 176.732 58.9756C176.908 58.6557 177.165 58.3881 177.477 58.1998C177.79 58.0114 178.147 57.9091 178.512 57.9032C179.253 57.7608 180.02 57.9066 180.657 58.3107C180.789 58.4103 180.891 58.5453 180.95 58.7002C181.009 58.8551 181.023 59.0235 180.99 59.186C180.958 59.3486 180.88 59.4986 180.766 59.6188C180.652 59.7391 180.506 59.8246 180.346 59.8656Z" fill="#263238"/>
<path d="M189.782 57.5494C189.261 57.4033 188.749 57.2279 188.249 57.0239C187.685 56.9176 187.172 56.6272 186.79 56.1982C186.695 56.0411 186.655 55.8566 186.676 55.674C186.697 55.4914 186.779 55.3212 186.908 55.1903C187.201 54.9664 187.549 54.8262 187.916 54.7846C188.282 54.7431 188.653 54.8017 188.989 54.9543C189.713 55.1526 190.339 55.6107 190.747 56.2411C190.832 56.3907 190.872 56.5617 190.861 56.7334C190.851 56.905 190.791 57.07 190.689 57.2084C190.587 57.3468 190.447 57.4527 190.286 57.5132C190.125 57.5737 189.95 57.5863 189.782 57.5494Z" fill="#263238"/>
<path d="M178.909 71.6399C180.488 71.2618 182.134 71.2618 183.713 71.6399C183.852 71.6399 183.991 71.3611 184.024 71.2324L184.109 68.6588C184.442 68.8518 186.115 69.7311 186.115 69.2593C186.289 65.0764 186.034 60.8866 185.353 56.7558C185.346 56.7318 185.331 56.7109 185.311 56.696C185.29 56.6811 185.266 56.673 185.241 56.673C185.216 56.673 185.191 56.6811 185.171 56.696C185.151 56.7109 185.136 56.7318 185.128 56.7558C184.957 60.627 185.45 64.4874 185.332 68.38C184.74 68.052 184.105 67.8101 183.445 67.6615C183.305 67.6615 183.445 70.396 183.445 70.8034C181.969 70.295 180.352 70.3835 178.941 71.0501C178.383 71.4039 178.158 71.8758 178.909 71.6399Z" fill="#263238"/>
<path d="M175.734 74.192C176.003 74.4923 176.271 74.8998 176.7 74.9641C177.15 74.9856 177.6 74.9088 178.019 74.7389C178.019 74.7389 178.094 74.7389 178.019 74.8032C177.834 75.0309 177.59 75.2033 177.314 75.3016C177.038 75.4 176.74 75.4205 176.453 75.3609C176.219 75.2859 176.011 75.1448 175.855 74.9546C175.699 74.7643 175.601 74.533 175.574 74.2885C175.595 74.1706 175.692 74.1491 175.734 74.192Z" fill="#263238"/>
<path opacity="0.2" d="M170.737 42.0005C170.576 44.7564 169.922 53.3029 168.593 55.0401C167.263 56.7773 164.453 60.82 163.027 61.4741C163.22 55.78 164.1 50.3647 165.569 47.5337C166.773 45.2655 168.556 43.3565 170.737 42.0005Z" fill="#263238"/>
<path d="M186.018 50.354C185.268 51.1172 184.336 51.6756 183.309 51.976C182.282 52.2763 181.195 52.3086 180.152 52.0697C179.085 51.8323 178.097 51.3236 177.284 50.5929C176.471 49.8622 175.859 48.9342 175.509 47.8983C175.509 47.834 175.391 47.8983 175.413 47.8983C175.685 49.0167 176.259 50.0389 177.072 50.8538C177.885 51.6686 178.906 52.245 180.024 52.5201C181.14 52.7331 182.292 52.6469 183.364 52.2702C184.435 51.8935 185.388 51.2397 186.125 50.3754C186.19 50.3862 186.104 50.2897 186.018 50.354Z" fill="#263238"/>
<path d="M180.635 34.462C178.987 34.3505 177.337 34.6555 175.838 35.3488C174.339 36.0422 173.039 37.1016 172.056 38.4296C171.219 39.7811 170.864 41.3759 171.048 42.9549H171.188C171.208 41.5694 171.602 40.2152 172.329 39.0354C173.056 37.8557 174.088 36.8942 175.316 36.2528C176.659 35.5012 178.157 35.0705 179.693 34.9942C181.23 34.9179 182.763 35.1982 184.174 35.8131C185.561 36.385 186.701 37.4298 187.391 38.762C187.455 38.9014 187.734 38.8371 187.68 38.6977C186.801 36.36 183.959 34.6228 180.635 34.462Z" fill="#263238"/>
<path d="M201.117 43.8128C200.65 41.9973 199.556 40.4056 198.028 39.3197C195.884 37.7862 193.374 37.8077 190.865 37.8935C190.79 37.8935 190.801 38.0007 190.865 37.99C192.999 37.7672 195.151 38.1657 197.063 39.1374C198.62 40.0715 199.805 41.5148 200.42 43.223C201.004 44.975 200.936 46.879 200.229 48.5851C199.522 50.2913 198.223 51.6847 196.57 52.5094C195.608 52.9615 194.564 53.2118 193.502 53.245C192.439 53.2782 191.382 53.0936 190.393 52.7024C190.318 52.7024 190.254 52.7775 190.329 52.8204C191.666 53.411 193.142 53.616 194.589 53.4122C196.037 53.2084 197.398 52.6039 198.52 51.667C199.642 50.7301 200.48 49.4981 200.939 48.1102C201.398 46.7223 201.459 45.2338 201.117 43.8128Z" fill="#263238"/>
<path d="M164.486 51.1153C164.486 51.1153 161.526 44.3703 164.689 40.8316C166.48 38.8371 171.863 39.5234 171.863 39.5234C173.471 37.4821 175.824 36.163 178.405 35.856C183.005 35.1375 188.249 38.2473 188.249 38.2473C188.249 38.2473 192.731 36.1026 196.581 38.7084C201.942 42.3436 200.602 50.8472 194.747 53.1635C190.629 54.8042 185.503 50.8794 185.503 50.8794C184.989 50.8794 179.434 53.7104 175.777 48.6704C175.777 48.6704 172.303 51.3191 169.526 49.0672C168.998 49.8847 168.23 50.5199 167.329 50.8863C166.427 51.2528 165.434 51.3327 164.486 51.1153Z" fill="#263238"/>
<path d="M166.234 62.3212C166.234 62.3212 163.424 56.0266 160.647 56.9596C157.869 57.8925 159.221 66.4497 161.966 68.1226C162.3 68.3552 162.678 68.5184 163.077 68.6023C163.476 68.6863 163.887 68.6894 164.287 68.6114C164.687 68.5334 165.067 68.3759 165.405 68.1483C165.743 67.9206 166.032 67.6275 166.255 67.2862L166.234 62.3212Z" fill="#D3766A"/>
<path d="M161.097 59.3831V59.4581C163.006 60.6913 163.724 62.8253 164.1 64.9592C164.019 64.7293 163.889 64.5196 163.72 64.3447C163.55 64.1697 163.344 64.0337 163.117 63.946C162.889 63.8584 162.646 63.8211 162.403 63.8368C162.159 63.8525 161.922 63.9208 161.708 64.037C161.644 64.037 161.708 64.155 161.708 64.155C162.099 64.1098 162.494 64.1892 162.836 64.3817C163.179 64.5743 163.452 64.8702 163.617 65.2273C163.908 65.8073 164.131 66.419 164.282 67.0503C164.282 67.254 164.689 67.2218 164.668 67.0503C165.215 64.2836 163.874 60.198 161.097 59.3831Z" fill="#263238"/>
<path d="M314.868 74.8146L199.417 110.177L220.233 178.135L335.684 142.773L314.868 74.8146Z" fill="#B0BEC5"/>
<path opacity="0.2" d="M314.868 74.8146L199.417 110.177L220.233 178.135L335.684 142.773L314.868 74.8146Z" fill="black"/>
<path opacity="0.2" d="M314.862 74.8151L276.064 86.699L296.88 154.657L335.678 142.773L314.862 74.8151Z" fill="black"/>
<path d="M313.004 78.2776C311.696 84.297 310.423 90.3164 309.187 96.3358L305.53 114.437L301.991 132.613C300.833 138.661 299.704 144.72 298.603 150.789C299.911 144.777 301.184 138.757 302.42 132.731L306.077 114.63L309.616 96.4966C310.774 90.4201 311.903 84.3471 313.004 78.2776Z" fill="#B0BEC5"/>
<path d="M332.06 140.495C327.77 136.091 323.442 131.705 319.074 127.337L305.991 114.297L292.823 101.354C288.419 97.065 283.994 92.7756 279.547 88.4863C283.837 92.8971 288.165 97.283 292.533 101.644L305.616 114.683L318.784 127.627C323.195 131.959 327.62 136.248 332.06 140.495Z" fill="#B0BEC5"/>
<path d="M221.591 118.935L222.227 118.74L219.491 109.81L218.856 110.005L221.591 118.935Z" fill="#263238"/>
<path d="M220.081 119.389L220.717 119.194L217.981 110.263L217.346 110.458L220.081 119.389Z" fill="#263238"/>
<path d="M218.557 119.875L219.193 119.68L216.457 110.75L215.822 110.944L218.557 119.875Z" fill="#263238"/>
<path d="M217.049 120.312L217.684 120.118L214.951 111.187L214.315 111.381L217.049 120.312Z" fill="#263238"/>
<path d="M215.527 120.785L216.162 120.59L213.427 111.66L212.791 111.855L215.527 120.785Z" fill="#263238"/>
<path d="M214.013 121.239L214.649 121.044L211.914 112.114L211.278 112.309L214.013 121.239Z" fill="#263238"/>
<path d="M212.482 121.739L213.118 121.544L210.383 112.613L209.747 112.808L212.482 121.739Z" fill="#263238"/>
<path d="M210.967 122.19L211.603 121.995L208.866 113.065L208.23 113.259L210.967 122.19Z" fill="#263238"/>
<path d="M209.438 122.671L210.074 122.476L207.338 113.546L206.703 113.74L209.438 122.671Z" fill="#263238"/>
<path d="M225.92 108.582L223.282 108.646L228.997 106.877L226.767 108.314L227.775 111.595C229.587 111.284 230.81 112.796 231.732 115.799L226.016 117.6C225.094 114.608 225.255 112.667 226.928 111.906L225.92 108.582Z" fill="#263238"/>
<path d="M231.667 110.866L233.158 110.405L231.818 106.03L235.635 104.861L236.976 109.236L238.477 108.775L236.461 114.372L231.667 110.866Z" fill="#263238"/>
<path opacity="0.1" d="M199.422 110.18L201.127 115.756L280.931 102.587L276.062 86.7062L199.422 110.18Z" fill="black"/>
<path d="M350.643 150.478L311.835 162.36L296.876 154.66L335.684 142.768L350.643 150.478Z" fill="#B0BEC5"/>
<path opacity="0.2" d="M350.643 150.478L311.835 162.36L296.876 154.66L335.684 142.768L350.643 150.478Z" fill="black"/>
<path d="M212.151 192.9L250.959 181.007L259.034 166.252L220.226 178.134L212.151 192.9Z" fill="#B0BEC5"/>
<path opacity="0.1" d="M212.151 192.9L250.959 181.007L259.034 166.252L220.226 178.134L212.151 192.9Z" fill="black"/>
<path d="M148.283 99.6922C153.955 118.662 169.729 151.164 175.584 155.132C180.742 158.681 205.502 155.454 216.333 153.105C220.386 152.237 212.044 121.289 207.754 122.308C202.564 123.541 187.112 126.597 186.018 125.75C184.924 124.903 169.933 105.376 159.21 93.923C149.473 83.4999 146.138 92.5182 148.283 99.6922Z" fill="#D3766A"/>
<path d="M205.524 124.828C205.524 124.828 213.727 115.584 219.539 112.056C225.674 108.545 232.571 106.576 239.635 106.319C247.259 106.019 265.907 110.544 265.532 116.142C265.199 121.214 246.38 115.616 246.38 115.616C246.38 115.616 266.508 118.158 264.985 124.195C263.462 130.232 241.983 122.479 241.983 122.479C241.983 122.479 262.604 125.546 260.095 131.541C258.165 136.055 238.316 130.136 238.316 130.136C238.316 130.136 256.031 132.902 254.24 137.642C252.267 142.864 233.598 138.554 233.598 138.554C227.046 149.792 219.314 152.494 213.599 153.706C212.172 153.952 205.524 124.828 205.524 124.828Z" fill="#D3766A"/>
<path d="M239.474 114.287C241.844 114.501 244.257 114.705 246.605 115.123C248.954 115.541 251.281 116.056 253.586 116.699C256.606 117.476 259.528 118.595 262.293 120.034C257.2 117.836 248.814 116.185 246.466 115.745C244.117 115.305 241.79 114.78 239.453 114.362C239.388 114.383 239.41 114.287 239.474 114.287Z" fill="#263238"/>
<path d="M237.791 122.747C240.804 123.144 243.828 123.434 246.83 123.97C249.833 124.506 252.61 125.278 255.559 126.018C255.784 126.072 255.677 126.179 255.452 126.125C252.471 125.503 249.683 125.16 246.702 124.581C243.721 124.002 240.761 123.294 237.769 122.812C237.726 122.812 237.737 122.737 237.791 122.747Z" fill="#263238"/>
<path d="M235.035 129.739C239.685 130.244 244.27 131.228 248.718 132.677C248.943 132.742 248.793 132.86 248.557 132.806C244.032 131.734 240.482 130.876 235.024 129.9C234.938 129.889 234.938 129.728 235.035 129.739Z" fill="#263238"/>
<path d="M213.877 158.596L206.671 121.579L186.586 124.731C178.909 115.509 163.574 97.0649 157.312 91.4888C149.966 84.9368 144.937 89.6122 147.457 99.3168C153.226 121.503 170.727 154.274 175.466 157.491C182.265 162.102 213.877 158.596 213.877 158.596Z" fill="#B0BEC5"/>
<path opacity="0.1" d="M200.28 126.715C201.271 126.93 202.28 127.049 203.293 127.069C205.438 127.358 206.382 130.522 204.43 131.723C203.405 132.354 202.247 132.736 201.047 132.839C199.848 132.941 198.641 132.761 197.524 132.313C195.38 131.476 193.567 129.396 194.028 126.951C194.108 126.495 194.305 126.068 194.599 125.71C194.893 125.353 195.274 125.078 195.706 124.912C196.138 124.745 196.605 124.694 197.063 124.762C197.521 124.83 197.953 125.015 198.318 125.3C198.912 125.849 199.571 126.325 200.28 126.715ZM198.136 122.919C198.808 123.243 199.549 123.401 200.296 123.379C201.042 123.356 201.773 123.154 202.425 122.79C202.665 122.63 202.858 122.408 202.983 122.147L198.136 122.919ZM187.702 124.549C188.555 125.173 189.609 125.459 190.661 125.353C191.024 125.303 191.358 125.128 191.605 124.858C191.852 124.587 191.996 124.239 192.012 123.873L187.702 124.549ZM210.435 141.074C210.011 141.251 209.667 141.58 209.47 141.996C208.569 143.808 209.824 145.76 211.615 146.929L210.435 141.074ZM178.136 148.194C177.793 149.384 177.75 150.446 176.86 151.411C175.902 152.183 175.045 153.073 174.308 154.06C174.184 154.302 174.125 154.573 174.136 154.846C174.148 155.119 174.23 155.384 174.375 155.615C174.52 155.846 174.722 156.036 174.962 156.166C175.203 156.295 175.472 156.36 175.745 156.354C177.614 156.125 179.327 155.201 180.547 153.767C181.766 152.333 182.403 150.493 182.329 148.612C182.269 148.13 182.047 147.683 181.699 147.343C181.352 147.004 180.899 146.793 180.416 146.744C179.932 146.696 179.447 146.813 179.039 147.076C178.63 147.339 178.324 147.734 178.169 148.194H178.136ZM174.437 137.803C173.836 139.261 173.944 140.913 173.44 142.435C172.997 143.831 172.471 145.199 171.863 146.532C171.413 147.497 172.314 149.02 173.483 148.505C175.383 147.775 176.939 146.354 177.836 144.527C178.651 142.843 179.552 140.012 178.769 138.221C177.986 136.43 175.381 135.69 174.469 137.803H174.437ZM158.523 99.8745C159.123 100.001 159.748 99.8912 160.267 99.5673C160.787 99.2435 161.161 98.731 161.312 98.1373C161.912 95.8317 159.853 93.4619 158.223 92.025C156.593 90.588 154.298 89.2798 152.014 90.0197C151.71 90.1182 151.436 90.2928 151.219 90.5269C151.001 90.7609 150.847 91.0467 150.771 91.3571C150.694 91.6676 150.699 91.9923 150.783 92.3006C150.867 92.6089 151.029 92.8905 151.253 93.1187C152.25 94.3626 153.634 95.2634 154.695 96.4859C155.757 97.7083 156.69 99.5635 158.556 99.8745H158.523ZM166.802 109.021C167.703 107.724 167.006 105.804 166.362 104.571C166.02 103.891 165.487 103.325 164.829 102.941C164.386 102.658 163.849 102.561 163.335 102.671C162.821 102.782 162.371 103.091 162.084 103.531C161.791 104.141 161.745 104.84 161.955 105.483C162.044 105.819 162.167 106.146 162.32 106.459V106.555V106.641C162.511 107.665 162.945 108.628 163.585 109.45C163.806 109.673 164.076 109.842 164.374 109.943C164.671 110.045 164.988 110.076 165.3 110.034C165.611 109.993 165.909 109.88 166.17 109.704C166.43 109.528 166.647 109.295 166.802 109.021ZM164.239 119.745C164.631 119.831 165.037 119.831 165.429 119.745C166.024 119.562 166.526 119.159 166.834 118.619C167.122 118.044 167.266 117.407 167.252 116.764C167.233 116.154 167.067 115.559 166.77 115.027L166.416 114.587L165.944 114.244C165.649 114.092 165.323 114.008 164.991 113.999C164.659 113.99 164.33 114.056 164.027 114.192C163.724 114.328 163.455 114.53 163.241 114.784C163.028 115.039 162.874 115.338 162.791 115.659C162.613 116.284 162.487 116.922 162.416 117.568L162.513 118.158C162.588 118.454 162.735 118.726 162.941 118.951C163.272 119.31 163.707 119.554 164.185 119.648L164.239 119.745ZM173.236 108.861L171.091 106.448C170.749 106.407 170.403 106.494 170.12 106.692C169.837 106.889 169.637 107.184 169.558 107.52C169.472 108.146 169.472 108.781 169.558 109.408C169.558 109.676 169.558 109.944 169.558 110.222C169.552 110.627 169.595 111.03 169.686 111.424C169.804 111.832 170.054 112.189 170.398 112.438C170.743 112.686 171.16 112.813 171.585 112.796C172.004 112.774 172.405 112.619 172.729 112.353C173.053 112.086 173.283 111.723 173.386 111.316C173.547 110.498 173.495 109.653 173.236 108.861Z" fill="#030402"/>
<path d="M206.95 155.196C206.082 152.998 204.044 143.454 203.562 141.063C203.079 138.672 201.481 129.063 200.999 126.608C200.999 126.479 201.149 126.393 201.181 126.533C201.696 128.946 204.066 138.457 204.57 140.838C205.074 143.218 206.993 152.762 207.079 155.164C207.083 155.181 207.08 155.199 207.071 155.214C207.062 155.229 207.048 155.24 207.031 155.245C207.013 155.249 206.995 155.246 206.98 155.237C206.965 155.228 206.954 155.213 206.95 155.196Z" fill="#263238"/>
<path d="M200.323 159.636C197.031 159.829 193.739 159.904 190.447 159.882C187.143 159.897 183.841 159.707 180.56 159.314C178.879 159.148 177.235 158.713 175.692 158.027C174.304 157.047 173.099 155.831 172.131 154.435C170.188 151.752 168.428 148.939 166.866 146.017C163.649 140.237 160.883 134.221 158.18 128.238C155.478 122.254 153.022 116.099 150.771 109.901C153.505 115.895 156.207 121.9 159.017 127.852C161.826 133.803 164.668 139.733 167.735 145.535C169.266 148.428 170.955 151.235 172.796 153.942C173.656 155.289 174.745 156.476 176.013 157.448C177.476 158.123 179.036 158.56 180.635 158.746C187.166 159.537 193.747 159.835 200.323 159.636Z" fill="#263238"/>
<path d="M152.861 115.134C152.421 114.689 152.023 114.204 151.671 113.686C151.307 113.173 151.028 112.604 150.845 112.003C151.007 112.269 151.182 112.527 151.371 112.775L151.896 113.536C152.249 114.049 152.572 114.583 152.861 115.134Z" fill="#263238"/>
<path d="M169.794 105.193C172.507 107.917 174.941 110.909 177.461 113.772C179.981 116.635 182.394 119.659 184.967 122.511L185.922 123.584C186.093 123.745 186.254 123.927 186.415 124.077C186.576 124.227 186.576 124.216 186.651 124.281C186.651 124.281 186.726 124.281 186.769 124.281C187.584 124.281 188.613 124.099 189.535 123.981L195.24 123.133C199.036 122.576 202.843 121.997 206.65 121.482L206.8 122.426L206.575 121.493H206.628C202.865 122.297 199.122 123.015 195.305 123.712C193.407 124.056 191.509 124.356 189.6 124.645C188.624 124.815 187.639 124.929 186.651 124.989C186.573 124.999 186.493 124.999 186.415 124.989C186.31 124.957 186.212 124.906 186.125 124.838C186.017 124.754 185.913 124.665 185.814 124.57L185.289 124.056C184.946 123.702 184.624 123.348 184.302 122.983C181.782 120.056 179.337 117.096 176.935 114.094L173.343 109.579C172.164 108.174 171.091 106.63 169.794 105.193Z" fill="#263238"/>
<path d="M171.198 105.515C171.602 106.011 171.961 106.542 172.271 107.102C172.573 107.655 172.787 108.252 172.903 108.871C172.775 108.582 172.614 108.324 172.464 108.046L172.024 107.22C171.718 106.667 171.443 106.098 171.198 105.515Z" fill="#263238"/>
<path d="M42.5824 385.92C42.1855 375.886 42.3251 365.839 43.0007 355.82C44.4795 335.17 47.6318 314.675 52.4265 294.536C55.0537 283.19 58.2922 272.017 61.67 260.886C61.7665 260.553 62.3027 260.65 62.2169 260.993C51.7831 300.283 43.2151 340.839 43.8049 381.674C43.9765 393.105 45.2954 404.332 46.3785 415.688C46.3785 415.999 45.9067 416.117 45.8423 415.806C43.6869 406.059 42.9899 395.85 42.5824 385.92Z" fill="#B0BEC5"/>
<path d="M62.217 260.939C62.217 260.939 78.0232 301.066 74.4845 310.492C70.9458 319.918 63.6432 321.934 63.6432 321.934C63.6432 321.934 73.2942 335.746 66.56 348.742C59.8257 361.739 44.7915 361.074 43.7835 375.765C43.7835 375.722 42.9471 314.32 62.217 260.939Z" fill="#B0BEC5"/>
<path d="M45.51 350.372C45.4836 350.303 45.4836 350.227 45.51 350.158C47.5946 322.764 52.7417 295.69 60.8551 269.443C60.8551 269.368 61.0052 269.389 60.9838 269.443C57.8526 281.174 55.0859 292.97 52.6839 304.83C54.7962 302.825 57.3767 301.38 60.1903 300.627C60.1903 300.627 60.2653 300.627 60.1903 300.702C57.2205 301.8 54.5528 303.586 52.4051 305.913C51.9476 308.229 51.5008 310.556 51.0647 312.894C54.5927 308.948 59.4932 306.986 64.3938 305.12C64.4582 305.12 64.5011 305.205 64.3938 305.227C59.2895 307.307 54.1959 309.988 50.743 314.385C49.5277 321.04 48.4553 327.721 47.526 334.427C50.0816 331.763 53.3564 329.9 56.9518 329.065C57.059 329.065 57.1234 329.204 56.9518 329.236C53.241 330.309 49.9217 332.436 47.3973 335.36H47.333C47.0184 337.719 46.7217 340.081 46.4429 342.448C48.4799 340.766 50.7806 339.433 53.2523 338.501C53.3166 338.501 53.3488 338.577 53.2523 338.598C50.8317 339.671 48.615 341.155 46.7003 342.984C46.7003 342.984 46.7003 342.984 46.6145 342.984C46.3571 345.225 46.089 347.477 45.8639 349.729C49.4251 345.428 54.0446 342.127 59.2681 340.153C59.2786 340.149 59.2899 340.147 59.3013 340.147C59.3127 340.147 59.3239 340.149 59.3344 340.154C59.3448 340.158 59.3543 340.165 59.3622 340.173C59.3702 340.181 59.3764 340.191 59.3806 340.201C59.3849 340.212 59.387 340.223 59.3868 340.234C59.3867 340.246 59.3843 340.257 59.3798 340.267C59.3754 340.278 59.3689 340.287 59.3607 340.295C59.3526 340.303 59.343 340.309 59.3324 340.314C54.1729 342.587 49.6402 346.075 46.1212 350.479C46.085 350.531 46.033 350.569 45.973 350.589C45.913 350.608 45.8483 350.607 45.7888 350.587C45.4456 354.04 45.1347 357.503 44.888 360.967H44.8022C44.9738 357.46 45.2205 353.911 45.51 350.372Z" fill="#263238"/>
<path d="M58.2065 296.68C61.0681 294.897 64.3394 293.878 67.7074 293.721C67.7824 293.721 67.7931 293.828 67.7074 293.839C64.4542 294.441 61.2954 295.472 58.3137 296.906C58.2856 296.911 58.2565 296.907 58.2309 296.894C58.2054 296.882 58.1848 296.86 58.1725 296.835C58.1602 296.809 58.1569 296.78 58.163 296.752C58.1692 296.724 58.1845 296.699 58.2065 296.68Z" fill="#263238"/>
<path d="M56.2869 339.156C58.4879 337.899 60.9079 337.073 63.4179 336.721C63.5037 336.721 63.5144 336.839 63.4179 336.85C60.959 337.344 58.5807 338.178 56.3512 339.327C56.2761 339.37 56.1904 339.209 56.2869 339.156Z" fill="#263238"/>
<path d="M1.02945 311.146C7.71286 315.77 13.8501 321.138 19.3235 327.145C24.983 333.495 29.3534 340.885 32.1915 348.903C38.1894 365.614 41.4168 383.192 41.746 400.944C41.9515 410.775 41.005 420.597 38.9258 430.208C38.9076 430.275 38.8649 430.333 38.8061 430.37C38.7474 430.407 38.6768 430.421 38.6083 430.409C38.5397 430.397 38.4782 430.36 38.4358 430.305C38.3933 430.25 38.3731 430.181 38.3789 430.111C40.969 413.149 40.8821 395.885 38.1216 378.95C35.3978 362.35 31.1407 344.292 20.5889 330.802C14.7875 323.489 7.62432 317.687 0.58979 311.693C0.171579 311.393 0.643406 310.878 1.02945 311.146Z" fill="#B0BEC5"/>
<path d="M39.3869 388.998C35.5852 382.841 31.1151 377.123 26.0578 371.948C18.1439 364.045 11.4847 358.425 10.4553 353.192C9.42584 347.959 18.3798 344.121 18.3798 344.121C18.3798 344.121 7.43129 346.083 4.43947 341.483C1.44765 336.882 0 310.299 0 310.299C0 310.299 19.8918 324.561 29.189 344.431C38.4861 364.302 39.3869 388.998 39.3869 388.998Z" fill="#B0BEC5"/>
<path d="M7.10961 335.284C8.41992 335.097 9.74682 335.054 11.0665 335.156C11.2274 335.156 11.2167 335.435 11.0665 335.435C9.75828 335.435 8.45003 335.37 7.13106 335.435C7.02382 335.413 7.02383 335.284 7.10961 335.284Z" fill="#263238"/>
<path d="M21.436 361.021C23.541 361.065 25.6215 361.482 27.5804 362.254C27.5804 362.254 27.5804 362.35 27.5804 362.34C25.5537 361.857 23.5056 361.653 21.4574 361.321C21.2537 361.321 21.2644 361.021 21.436 361.021Z" fill="#263238"/>
<path d="M25.736 352.131C26.6102 352.124 27.483 352.203 28.3418 352.367C28.4276 352.367 28.4168 352.528 28.3418 352.528C27.4711 352.571 26.5982 352.528 25.736 352.399C25.7069 352.391 25.6813 352.373 25.663 352.349C25.6448 352.325 25.6349 352.295 25.6349 352.265C25.6349 352.235 25.6448 352.205 25.663 352.181C25.6813 352.157 25.7069 352.139 25.736 352.131Z" fill="#263238"/>
<path d="M97.7434 339.381C91.2684 341.575 85.0629 344.496 79.2456 348.088C73.2221 351.936 67.9973 356.91 63.8576 362.736C55.141 374.876 48.4654 388.357 44.0944 402.649C41.6621 410.558 40.1579 418.723 39.6121 426.98C39.6121 427.043 39.6369 427.103 39.6812 427.147C39.7254 427.191 39.7854 427.216 39.848 427.216C39.9105 427.216 39.9705 427.191 40.0148 427.147C40.059 427.103 40.0839 427.043 40.0839 426.98C41.8959 412.674 45.9376 398.74 52.0619 385.684C58.0991 372.881 65.7234 359.251 77.3797 350.78C83.728 346.158 90.859 343.145 97.9686 339.949C98.3868 339.778 98.1723 339.252 97.7434 339.381Z" fill="#B0BEC5"/>
<path d="M48.7162 393.512C53.2131 389.405 58.1509 385.809 63.4394 382.789C71.6749 378.221 78.3556 375.208 80.4037 371.218C82.4519 367.229 76.1144 362.039 76.1144 362.039C76.1144 362.039 84.5108 366.157 87.9959 363.112C91.481 360.066 98.7943 338.888 98.7943 338.888C98.7943 338.888 79.4064 345.793 67.289 359.777C55.1716 373.76 48.7162 393.512 48.7162 393.512Z" fill="#B0BEC5"/>
<path d="M64.812 374.039C66.7152 373.906 68.6262 374.139 70.4417 374.725C70.4417 374.725 70.4417 374.821 70.4417 374.811C68.5864 374.5 66.7132 374.306 64.8334 374.232C64.8078 374.235 64.7821 374.227 64.762 374.211C64.7419 374.195 64.729 374.172 64.7262 374.146C64.7233 374.12 64.7308 374.095 64.7469 374.075C64.763 374.054 64.7864 374.042 64.812 374.039Z" fill="#263238"/>
<path d="M81.7334 351.841C82.6013 351.779 83.4736 351.829 84.3285 351.991C84.3449 351.998 84.3591 352.009 84.3691 352.023C84.3791 352.037 84.3844 352.054 84.3844 352.072C84.3844 352.089 84.3791 352.107 84.3691 352.121C84.3591 352.135 84.3449 352.146 84.3285 352.152C83.4814 352.056 82.6342 352.088 81.7763 352.067C81.7499 352.065 81.7247 352.055 81.7048 352.038C81.6849 352.02 81.6713 351.997 81.6664 351.971C81.6614 351.945 81.6654 351.918 81.6775 351.894C81.6897 351.871 81.7094 351.852 81.7334 351.841Z" fill="#263238"/>
<path d="M23.6986 453.724H67.4714L61.2304 407.989L59.6326 396.268H31.5374L29.9396 407.989L23.6986 453.724Z" fill="#455A64"/>
<path d="M29.9396 407.989H61.2303L59.6326 396.268H31.5374L29.9396 407.989Z" fill="#263238"/>
<path d="M27.5055 402.123H63.6539V392.193H27.5055V402.123Z" fill="#455A64"/>
<path d="M256.878 24.0603C256.878 28.4734 255.651 32.7995 253.335 36.5561C251.019 40.3127 247.705 43.352 243.763 45.3349C239.821 47.3179 235.405 48.1664 231.008 47.7859C226.611 47.4054 222.407 45.8108 218.864 43.1801L207.186 46.1612L212.044 35.2984C210.334 32.1044 209.375 28.5626 209.24 24.9424C209.105 21.3221 209.797 17.7187 211.264 14.4062C212.731 11.0936 214.934 8.15918 217.705 5.82596C220.476 3.49275 223.743 1.82221 227.258 0.941385C230.772 0.0605553 234.44 -0.00737183 237.985 0.742768C241.529 1.49291 244.855 3.04136 247.711 5.27038C250.567 7.4994 252.877 10.3503 254.466 13.6063C256.054 16.8622 256.879 20.4376 256.878 24.0603Z" fill="white"/>
<path d="M256.878 24.0496C256.877 28.4681 255.66 32.8012 253.361 36.5745C252.802 37.5257 252.186 38.4424 251.516 39.3197C250.805 40.1597 250.042 40.9547 249.232 41.7002C247.632 43.2084 245.827 44.4828 243.871 45.4856C241.908 46.4875 239.814 47.2094 237.651 47.6303C236.565 47.8464 235.465 47.9826 234.359 48.0377C233.256 48.1289 232.148 48.1289 231.046 48.0377C226.585 47.6917 222.309 46.1139 218.692 43.4803L219.014 43.5447L207.368 46.6115L206.425 46.8582L206.821 45.9574L211.636 35.0732V35.5236C209.885 32.2676 208.906 28.6523 208.776 24.9575C208.646 21.2626 209.368 17.5874 210.886 14.2163C212.405 10.8546 214.668 7.88118 217.502 5.51962C220.333 3.19287 223.654 1.53746 227.216 0.677578C230.778 -0.1823 234.489 -0.224312 238.069 0.5547C241.618 1.36187 244.941 2.95195 247.795 5.20864C250.635 7.45845 252.927 10.3227 254.501 13.586C256.074 16.8494 256.887 20.4269 256.878 24.0496ZM256.878 24.0496C256.876 18.602 254.989 13.323 251.537 9.10871C248.085 4.89444 243.281 2.00468 237.941 0.93002C234.427 0.230582 230.8 0.340597 227.335 1.25172C223.882 2.14368 220.679 3.8166 217.974 6.14158C215.293 8.49172 213.156 11.3971 211.711 14.6559C210.286 17.9056 209.619 21.4369 209.76 24.9825C209.925 28.4929 210.862 31.9236 212.505 35.0303L212.623 35.2555L212.516 35.4807L207.615 46.3327L207.068 45.6893L218.767 42.794H218.95L219.089 42.9013C222.557 45.535 226.69 47.1503 231.024 47.5659C232.095 47.6447 233.17 47.6447 234.241 47.5659C237.518 47.4533 240.733 46.6378 243.667 45.1746C245.624 44.2217 247.431 42.986 249.029 41.5072C249.838 40.7728 250.601 39.9884 251.313 39.1588C251.996 38.3056 252.629 37.4141 253.211 36.4887C255.552 32.7574 256.82 28.4539 256.878 24.0496Z" fill="#263238"/>
<path d="M234.713 26.6339V29.2611C234.72 29.5237 234.674 29.7849 234.577 30.029C234.48 30.273 234.334 30.4947 234.148 30.6804C233.963 30.8661 233.741 31.0119 233.497 31.109C233.253 31.2061 232.992 31.2523 232.729 31.2449C232.469 31.245 232.212 31.1936 231.972 31.0937C231.731 30.9939 231.513 30.8476 231.33 30.6633C231.147 30.4789 231.002 30.2601 230.903 30.0195C230.805 29.7789 230.755 29.5211 230.756 29.2611V25.0683C230.756 25.0683 230.756 25.0683 230.756 24.9825C230.756 24.8967 230.756 24.9825 230.756 24.9074C230.769 24.3874 230.981 23.8921 231.348 23.5233C231.715 23.1544 232.209 22.9399 232.729 22.9236C233.341 22.9534 233.953 22.8586 234.527 22.6449C235.102 22.4313 235.627 22.1031 236.07 21.6805C236.514 21.2579 236.867 20.7495 237.109 20.1862C237.35 19.623 237.475 19.0165 237.475 18.4037C237.475 17.7909 237.35 17.1845 237.109 16.6212C236.867 16.058 236.514 15.5496 236.07 15.1269C235.627 14.7043 235.102 14.3762 234.527 14.1625C233.953 13.9488 233.341 13.854 232.729 13.8838C231.946 13.8814 231.176 14.0852 230.496 14.4749C229.816 14.8645 229.251 15.4263 228.858 16.1036C228.726 16.332 228.55 16.5321 228.34 16.6925C228.131 16.8528 227.892 16.9702 227.637 17.038C227.382 17.1057 227.116 17.1225 226.854 17.0872C226.593 17.052 226.341 16.9655 226.113 16.8327C225.889 16.7002 225.694 16.5247 225.538 16.3164C225.382 16.1081 225.269 15.8711 225.205 15.619C225.142 15.3668 225.128 15.1046 225.166 14.8473C225.204 14.59 225.293 14.3427 225.426 14.1197C226.132 12.905 227.128 11.8845 228.325 11.1498C229.522 10.4151 230.883 9.98924 232.286 9.9104C233.688 9.83157 235.088 10.1023 236.36 10.6982C237.632 11.2941 238.736 12.1965 239.573 13.3245C240.41 14.4525 240.954 15.7707 241.156 17.1608C241.358 18.5509 241.211 19.9694 240.729 21.2888C240.247 22.6082 239.445 23.7873 238.395 24.7203C237.345 25.6532 236.08 26.3108 234.713 26.6339ZM234.713 35.4807V36.2099C234.719 36.4715 234.671 36.7316 234.574 36.9744C234.476 37.2172 234.33 37.4375 234.144 37.6221C233.959 37.8066 233.738 37.9515 233.494 38.0479C233.251 38.1444 232.991 38.1903 232.729 38.183C232.206 38.183 231.704 37.9751 231.334 37.6051C230.964 37.235 230.756 36.7332 230.756 36.2099V35.4807C230.761 34.9581 230.971 34.4583 231.339 34.0878C231.708 33.7172 232.207 33.5052 232.729 33.4969C232.99 33.494 233.25 33.5433 233.492 33.642C233.734 33.7407 233.953 33.8867 234.138 34.0715C234.323 34.2563 234.469 34.4761 234.568 34.7181C234.666 34.9601 234.716 35.2194 234.713 35.4807Z" fill="#B0BEC5"/>
</svg>
