<svg width="400" height="437" viewBox="0 0 400 437" fill="none" xmlns="http://www.w3.org/2000/svg">
<path d="M3.94067 365.22L53.4505 364.983L102.96 364.907L201.97 364.745L300.98 364.897L350.49 364.983L400 365.22L350.49 365.448L300.98 365.533L201.97 365.695L102.96 365.533L53.4505 365.448L3.94067 365.22Z" fill="#263238"/>
<path d="M201.97 436.662C304.584 436.662 387.77 424.97 387.77 410.548C387.77 396.125 304.584 384.433 201.97 384.433C99.3561 384.433 16.1709 396.125 16.1709 410.548C16.1709 424.97 99.3561 436.662 201.97 436.662Z" fill="#EBEBEB"/>
<path d="M370.212 51.9133V324.174H164.102V51.9133H167.587L168.897 57.6089L174.528 61.33V65.6207H181.175V58.9758H176.047L176.551 51.9702H191.288L191.725 58.9758H190.775V65.6207H197.422V58.9758H194.573L195.456 51.9702H205.455L207.003 58.9758V65.6207H213.65V58.9758H211.134L212.596 51.9702H223.81L224.399 58.9758H223.212V65.6207H229.859V58.9758H227.086V51.9133H237.863L238.148 54.0017L239.62 58.9189H239.44V65.5638H246.087V58.9189H243.551L243.048 54.4004L242.801 51.9133H257.263V54.5143C257.263 54.6756 258.507 58.9189 258.507 58.9189H255.715V65.5638H262.362V58.9189H260.596V51.9133H273.681L272.969 58.9189H271.953V65.5638H278.599V58.9189H276.985L276.615 51.9133H287.858L288.313 58.9189H288.152V65.5638H294.799V58.9189H292.026L290.051 51.9133H304.066L304.38 58.9189V65.5638H311.027V58.9189H308.32L307.523 51.9133H318.766L320.665 61.2256V65.5733H327.312V58.9284H323.646L324.89 51.9228H336.902V65.5733H343.549V58.9284H339.409L338.459 51.9228H349.056L353.149 60.8174V65.5638H359.796V58.9189H355.247L354.887 51.9133H370.212Z" fill="#EBEBEB"/>
<path d="M354.773 88.2228H179.542V88.9349H354.773V88.2228Z" fill="#DBDBDB"/>
<path d="M354.773 97.6396H179.542V98.3518H354.773V97.6396Z" fill="#DBDBDB"/>
<path d="M354.773 107.056H179.542V107.769H354.773V107.056Z" fill="#DBDBDB"/>
<path d="M354.773 116.483H179.542V117.195H354.773V116.483Z" fill="#DBDBDB"/>
<path d="M354.773 125.899H179.542V126.612H354.773V125.899Z" fill="#DBDBDB"/>
<path d="M354.773 135.316H179.542V136.028H354.773V135.316Z" fill="#DBDBDB"/>
<path d="M354.773 144.733H179.542V145.445H354.773V144.733Z" fill="#DBDBDB"/>
<path d="M354.773 154.15H179.542V154.862H354.773V154.15Z" fill="#DBDBDB"/>
<path d="M354.773 163.566H179.542V164.279H354.773V163.566Z" fill="#DBDBDB"/>
<path d="M354.773 172.993H179.542V173.705H354.773V172.993Z" fill="#DBDBDB"/>
<path d="M354.773 182.409H179.542V183.122H354.773V182.409Z" fill="#DBDBDB"/>
<path d="M354.773 191.826H179.542V192.538H354.773V191.826Z" fill="#DBDBDB"/>
<path d="M354.773 201.243H179.542V201.955H354.773V201.243Z" fill="#DBDBDB"/>
<path d="M354.773 210.66H179.542V211.372H354.773V210.66Z" fill="#DBDBDB"/>
<path d="M354.773 220.076H179.542V220.789H354.773V220.076Z" fill="#DBDBDB"/>
<path d="M354.773 229.493H179.542V230.205H354.773V229.493Z" fill="#DBDBDB"/>
<path d="M354.773 238.919H179.542V239.632H354.773V238.919Z" fill="#DBDBDB"/>
<path d="M354.773 248.336H179.542V249.048H354.773V248.336Z" fill="#DBDBDB"/>
<path d="M354.773 257.753H179.542V258.465H354.773V257.753Z" fill="#DBDBDB"/>
<path d="M354.773 267.17H179.542V267.882H354.773V267.17Z" fill="#DBDBDB"/>
<path d="M354.773 276.587H179.542V277.299H354.773V276.587Z" fill="#DBDBDB"/>
<path d="M354.773 286.003H179.542V286.715H354.773V286.003Z" fill="#DBDBDB"/>
<path d="M354.773 295.42H179.542V296.132H354.773V295.42Z" fill="#DBDBDB"/>
<path d="M354.773 304.846H179.542V305.559H354.773V304.846Z" fill="#DBDBDB"/>
<path d="M185.401 95.2285L205.835 94.9911L226.279 94.8582L267.157 94.7537L308.036 94.8582L328.48 94.9911L348.914 95.2285L328.48 95.4564L308.036 95.5893L267.157 95.7033L226.279 95.5893L205.835 95.4564L185.401 95.2285Z" fill="#263238"/>
<path d="M185.401 104.645C195.466 104.446 205.531 104.36 215.596 104.284L245.792 104.171L275.988 104.275L291.086 104.408L306.184 104.645L291.086 104.873L276.036 104.997L245.84 105.111L215.644 104.997C205.531 104.93 195.466 104.835 185.401 104.645Z" fill="#263238"/>
<path d="M185.401 114.062L205.835 113.834L226.279 113.701L267.157 113.587L308.036 113.701L328.48 113.834L348.914 114.062L328.48 114.29L308.036 114.423L267.157 114.537L226.279 114.423L205.835 114.29L185.401 114.062Z" fill="#263238"/>
<path d="M185.401 123.479C191.99 123.279 198.571 123.194 205.161 123.118L224.921 123.004L244.672 123.118L254.557 123.251C257.842 123.327 261.137 123.374 264.432 123.479C261.137 123.583 257.842 123.631 254.557 123.716L244.672 123.849L224.921 123.954L205.161 123.84C198.571 123.764 191.99 123.678 185.401 123.479Z" fill="#263238"/>
<path d="M185.401 142.312L205.835 142.084L226.279 141.952L267.157 141.838L308.036 141.952L328.48 142.084L348.914 142.312L328.48 142.55L308.036 142.683L267.157 142.787L226.279 142.683L205.835 142.55L185.401 142.312Z" fill="#263238"/>
<path d="M185.401 151.739C195.447 151.539 205.503 151.444 215.549 151.368L245.697 151.264L275.836 151.368L290.915 151.501L305.985 151.739L290.915 151.967L275.836 152.099L245.697 152.204L215.549 152.099C205.503 152.023 195.447 151.929 185.401 151.739Z" fill="#263238"/>
<path d="M185.401 161.155C196.577 160.956 207.744 160.861 218.92 160.785L252.43 160.681L285.939 160.785L302.699 160.918L319.459 161.155L302.699 161.383L285.939 161.516L252.43 161.63L218.92 161.516C207.744 161.44 196.577 161.345 185.401 161.155Z" fill="#263238"/>
<path d="M185.401 179.989C193.728 179.79 202.056 179.704 210.374 179.628L235.357 179.514L260.33 179.619L272.817 179.752L285.303 179.989L272.817 180.217L260.33 180.35L235.357 180.464L210.374 180.35C202.056 180.274 193.728 180.188 185.401 179.989Z" fill="#263238"/>
<path d="M185.401 189.406L205.835 189.178L226.279 189.045L267.157 188.931L308.036 189.045L328.48 189.178L348.914 189.406L328.48 189.643L308.036 189.776L267.157 189.88L226.279 189.767L205.835 189.634L185.401 189.406Z" fill="#263238"/>
<path d="M185.401 198.822C196.577 198.633 207.744 198.538 218.92 198.462L252.43 198.348L285.939 198.462L302.699 198.595L319.459 198.822L302.699 199.06L285.939 199.193L252.43 199.297L218.92 199.193C207.744 199.117 196.577 199.022 185.401 198.822Z" fill="#263238"/>
<path d="M185.401 208.239L205.835 208.011L226.279 207.878L267.157 207.765L308.036 207.878L328.48 208.011L348.914 208.239L328.48 208.477L308.036 208.61L267.157 208.714L226.279 208.61L205.835 208.477L185.401 208.239Z" fill="#263238"/>
<path d="M185.401 217.656C193.538 217.466 201.685 217.371 209.823 217.295L234.246 217.191L258.668 217.295L270.88 217.428L283.091 217.656L270.88 217.893L258.668 218.026L234.246 218.131L209.823 218.026C201.685 217.96 193.538 217.855 185.401 217.656Z" fill="#263238"/>
<path d="M182.315 175.67H115.903C115.027 170.171 114.548 164.616 114.469 159.048V92.1718H198.03V159.912C197.992 166.699 182.315 175.67 182.315 175.67Z" fill="#068932"/>
<path opacity="0.2" d="M197.982 159.902C197.982 166.481 183.255 175.091 182.343 175.622C184.783 173.97 184.366 160.899 184.366 160.899C184.366 160.899 197.735 159.162 197.982 159.902Z" fill="black"/>
<path d="M126.766 111.898C136.584 111.1 146.412 110.948 156.202 110.872C165.992 110.797 175.848 111.091 185.638 111.898C175.82 112.715 165.992 112.848 156.202 112.933C146.412 113.018 136.584 112.705 126.766 111.898Z" fill="white"/>
<path d="M126.766 122.909C134.495 122.102 142.224 121.96 149.944 121.874C157.664 121.789 165.403 122.102 173.132 122.909C165.426 123.655 157.687 124.014 149.944 123.982C142.224 123.907 134.495 123.717 126.766 122.909Z" fill="white"/>
<path d="M126.766 133.921C134.495 133.114 142.224 132.924 149.944 132.886C157.686 132.842 165.425 133.188 173.132 133.921C165.403 134.728 157.674 134.918 149.944 134.956C142.215 134.994 134.495 134.728 126.766 133.921Z" fill="white"/>
<path d="M340.415 361.841H261.204C261.204 361.841 257.282 353.753 257.282 346.083V282.652H336.494V346.899C336.494 353.326 340.415 361.841 340.415 361.841Z" fill="#068932"/>
<path opacity="0.8" d="M340.415 361.841H261.204C261.204 361.841 257.282 353.753 257.282 346.083V282.652H336.494V346.899C336.494 353.326 340.415 361.841 340.415 361.841Z" fill="white"/>
<path d="M336.494 288.054H257.282V288.291H336.494V288.054Z" fill="#DBDBDB"/>
<path d="M336.494 293.74H257.282V293.977H336.494V293.74Z" fill="#DBDBDB"/>
<path d="M336.494 299.435H257.282V299.673H336.494V299.435Z" fill="#DBDBDB"/>
<path d="M336.494 305.122H257.282V305.359H336.494V305.122Z" fill="#DBDBDB"/>
<path d="M336.494 310.817H257.282V311.055H336.494V310.817Z" fill="#DBDBDB"/>
<path d="M336.494 316.503H257.282V316.741H336.494V316.503Z" fill="#DBDBDB"/>
<path d="M336.494 322.19H257.282V322.427H336.494V322.19Z" fill="#DBDBDB"/>
<path d="M336.494 327.885H257.282V328.123H336.494V327.885Z" fill="#DBDBDB"/>
<path d="M336.494 333.571H257.282V333.809H336.494V333.571Z" fill="#DBDBDB"/>
<path d="M336.494 339.267H257.282V339.504H336.494V339.267Z" fill="#DBDBDB"/>
<path d="M336.494 344.953H257.282V345.191H336.494V344.953Z" fill="#DBDBDB"/>
<path d="M336.893 350.858H257.728C257.723 350.779 257.723 350.699 257.728 350.62H336.893C336.864 350.725 336.883 350.858 336.893 350.858Z" fill="#DBDBDB"/>
<path d="M338.393 356.553H259.162C259.131 356.476 259.106 356.397 259.086 356.316H338.317C338.336 356.397 338.362 356.476 338.393 356.553Z" fill="#DBDBDB"/>
<path d="M266.331 361.841H266.084C265.458 360.132 264.831 358.328 264.28 356.572C264.28 356.487 264.233 356.411 264.214 356.335C263.641 354.549 263.178 352.729 262.827 350.886C262.823 350.807 262.823 350.728 262.827 350.649C262.675 349.831 262.592 349.003 262.58 348.171V282.672H262.742V348.171C262.754 349.003 262.836 349.831 262.989 350.649C262.989 350.725 262.989 350.801 262.989 350.886C263.347 352.728 263.813 354.547 264.385 356.335C264.385 356.411 264.432 356.496 264.461 356.572C265.078 358.338 265.704 360.141 266.331 361.841Z" fill="#DBDBDB"/>
<path d="M272.028 361.841H271.782C271.155 360.132 270.528 358.328 269.977 356.572C269.977 356.487 269.93 356.411 269.911 356.335C269.338 354.549 268.875 352.729 268.525 350.886C268.52 350.807 268.52 350.728 268.525 350.649C268.372 349.831 268.289 349.003 268.278 348.171V282.672H268.439V348.171C268.451 349.003 268.534 349.831 268.686 350.649C268.686 350.725 268.686 350.801 268.686 350.886C269.045 352.728 269.511 354.547 270.082 356.335C270.082 356.411 270.129 356.496 270.158 356.572C270.775 358.338 271.402 360.141 272.028 361.841Z" fill="#DBDBDB"/>
<path d="M277.716 361.841H277.469C276.843 360.132 276.216 358.328 275.665 356.572C275.665 356.487 275.618 356.411 275.599 356.335C275.026 354.549 274.563 352.729 274.212 350.886C274.192 350.808 274.176 350.729 274.165 350.649C274.012 349.831 273.93 349.003 273.918 348.171V282.672H274.136V348.171C274.148 349.003 274.231 349.831 274.383 350.649C274.383 350.725 274.383 350.801 274.383 350.886C274.742 352.728 275.208 354.547 275.779 356.335C275.779 356.411 275.779 356.496 275.855 356.572C276.463 358.338 277.09 360.141 277.716 361.841Z" fill="#DBDBDB"/>
<path d="M283.414 361.841H283.167C282.54 360.132 281.913 358.328 281.363 356.572C281.363 356.487 281.315 356.411 281.287 356.335C280.718 354.547 280.255 352.728 279.9 350.886C279.9 350.81 279.9 350.725 279.9 350.649C279.748 349.831 279.665 349.003 279.653 348.171V282.672H279.834V348.171C279.846 349.003 279.928 349.831 280.081 350.649C280.081 350.725 280.081 350.801 280.081 350.886C280.439 352.728 280.905 354.547 281.477 356.335C281.477 356.411 281.477 356.496 281.552 356.572C282.16 358.338 282.787 360.141 283.414 361.841Z" fill="#DBDBDB"/>
<path d="M289.101 361.841H288.855C288.228 360.132 287.601 358.328 287.05 356.572C287.05 356.487 287.003 356.411 286.984 356.335C286.411 354.549 285.948 352.729 285.598 350.886C285.577 350.808 285.561 350.729 285.55 350.649C285.398 349.831 285.315 349.003 285.303 348.171V282.672H285.531V348.171C285.543 349.003 285.625 349.831 285.778 350.649C285.778 350.725 285.778 350.801 285.778 350.886C286.137 352.728 286.603 354.547 287.174 356.335C287.174 356.411 287.221 356.496 287.25 356.572C287.848 358.338 288.475 360.141 289.101 361.841Z" fill="#DBDBDB"/>
<path d="M294.799 361.841H294.552C293.925 360.132 293.299 358.328 292.748 356.572C292.748 356.487 292.7 356.411 292.681 356.335C292.108 354.549 291.646 352.729 291.295 350.886C291.275 350.808 291.259 350.729 291.247 350.649C291.095 349.831 291.012 349.003 291.001 348.171V282.672H291.228V348.171C291.24 349.003 291.323 349.831 291.475 350.649C291.475 350.725 291.475 350.801 291.475 350.886C291.834 352.728 292.3 354.547 292.871 356.335C292.871 356.411 292.919 356.496 292.947 356.572C293.545 358.338 294.172 360.141 294.799 361.841Z" fill="#DBDBDB"/>
<path d="M300.487 361.841H300.24C299.613 360.132 298.986 358.328 298.436 356.572C298.436 356.487 298.436 356.411 298.36 356.335C297.791 354.547 297.328 352.728 296.973 350.886C296.973 350.81 296.973 350.725 296.973 350.649C296.821 349.831 296.738 349.003 296.726 348.171V282.672H296.926V348.171C296.938 349.003 297.02 349.831 297.173 350.649C297.173 350.725 297.173 350.801 297.173 350.886C297.531 352.728 297.997 354.547 298.569 356.335C298.569 356.411 298.616 356.496 298.644 356.572C299.233 358.338 299.86 360.141 300.487 361.841Z" fill="#DBDBDB"/>
<path d="M306.184 361.841H305.937C305.31 360.132 304.684 358.328 304.133 356.572C304.133 356.487 304.133 356.411 304.057 356.335C303.489 354.547 303.026 352.728 302.671 350.886C302.671 350.81 302.671 350.725 302.671 350.649C302.518 349.831 302.436 349.003 302.424 348.171V282.672H302.623V348.171C302.635 349.003 302.718 349.831 302.87 350.649C302.87 350.725 302.87 350.801 302.87 350.886C303.229 352.728 303.695 354.547 304.266 356.335C304.266 356.411 304.313 356.496 304.342 356.572C304.931 358.338 305.557 360.141 306.184 361.841Z" fill="#DBDBDB"/>
<path d="M311.872 361.841H311.625C310.998 360.132 310.371 358.328 309.821 356.572C309.821 356.487 309.773 356.411 309.754 356.335C309.181 354.549 308.718 352.729 308.368 350.886C308.348 350.808 308.332 350.729 308.32 350.649C308.168 349.831 308.085 349.003 308.074 348.171V282.672H308.32V348.171C308.332 349.003 308.415 349.831 308.567 350.649C308.567 350.725 308.567 350.801 308.567 350.886C308.926 352.728 309.392 354.547 309.963 356.335C309.963 356.411 310.011 356.496 310.039 356.572C310.618 358.338 311.245 360.141 311.872 361.841Z" fill="#DBDBDB"/>
<path d="M317.569 361.841H317.322C316.696 360.132 316.069 358.328 315.518 356.572C315.518 356.487 315.471 356.411 315.452 356.335C314.879 354.549 314.416 352.729 314.065 350.886C314.045 350.808 314.029 350.729 314.018 350.649C313.865 349.831 313.783 349.003 313.771 348.171V282.672H314.018V348.171C314.03 349.003 314.112 349.831 314.265 350.649C314.265 350.725 314.265 350.801 314.265 350.886C314.623 352.728 315.089 354.547 315.661 356.335C315.661 356.411 315.708 356.496 315.736 356.572C316.316 358.338 316.942 360.141 317.569 361.841Z" fill="#DBDBDB"/>
<path d="M323.257 361.841H323.01C322.383 360.132 321.757 358.328 321.206 356.572C321.206 356.487 321.158 356.411 321.13 356.335C320.551 354.539 320.078 352.71 319.715 350.858C319.715 350.782 319.715 350.696 319.715 350.62C319.563 349.803 319.48 348.974 319.468 348.143V282.643H319.715V348.143C319.727 348.974 319.809 349.803 319.962 350.62C319.962 350.696 319.962 350.772 319.962 350.858C320.321 352.7 320.787 354.519 321.358 356.306C321.358 356.382 321.405 356.468 321.434 356.544C322.004 358.338 322.63 360.141 323.257 361.841Z" fill="#DBDBDB"/>
<path d="M328.954 361.841H328.707C328.081 360.132 327.454 358.328 326.903 356.572C326.903 356.487 326.856 356.411 326.827 356.335C326.248 354.539 325.776 352.71 325.412 350.858C325.412 350.782 325.412 350.696 325.412 350.62C325.26 349.803 325.177 348.974 325.166 348.143V282.643H325.412V348.143C325.424 348.974 325.507 349.803 325.659 350.62C325.659 350.696 325.659 350.772 325.659 350.858C326.018 352.7 326.484 354.519 327.055 356.306C327.055 356.382 327.103 356.468 327.131 356.544C327.701 358.338 328.328 360.141 328.954 361.841Z" fill="#DBDBDB"/>
<path d="M334.642 361.841H334.395C333.768 360.132 333.142 358.328 332.591 356.572C332.591 356.487 332.544 356.411 332.525 356.335C331.941 354.54 331.469 352.711 331.11 350.858C331.105 350.779 331.105 350.699 331.11 350.62C330.957 349.803 330.875 348.974 330.863 348.143V282.643H331.11V348.143C331.122 348.974 331.204 349.803 331.357 350.62C331.357 350.696 331.357 350.772 331.357 350.858C331.715 352.7 332.181 354.519 332.752 356.306C332.752 356.382 332.8 356.468 332.828 356.544C333.389 358.338 334.015 360.141 334.642 361.841Z" fill="#DBDBDB"/>
<path d="M269.189 298.249C273.871 298.05 278.561 297.964 283.243 297.888C287.924 297.812 292.605 297.812 297.296 297.774C301.987 297.736 306.659 297.774 311.34 297.888L318.367 298.021C320.712 298.097 323.048 298.145 325.393 298.249C323.048 298.353 320.712 298.401 318.367 298.486L311.34 298.619C306.659 298.686 301.977 298.686 297.296 298.724C292.615 298.762 287.924 298.724 283.243 298.61C278.561 298.496 273.871 298.448 269.189 298.249Z" fill="#263238"/>
<path d="M269.189 303.831C273.871 303.641 278.561 303.546 283.243 303.47C287.924 303.394 292.605 303.394 297.296 303.356C301.987 303.318 306.659 303.356 311.34 303.47L318.367 303.603C320.712 303.679 323.048 303.726 325.393 303.831C323.048 303.945 320.712 303.983 318.367 304.068L311.34 304.201C306.659 304.277 301.977 304.268 297.296 304.306C292.615 304.344 287.924 304.306 283.243 304.201C278.561 304.097 273.871 304.03 269.189 303.831Z" fill="#263238"/>
<path d="M269.189 309.412C272.541 309.223 275.836 309.128 279.236 309.052C282.635 308.976 285.93 308.957 289.282 308.938C292.634 308.919 295.976 308.938 299.328 309.052L304.342 309.185C306.023 309.261 307.694 309.308 309.365 309.412C307.694 309.526 306.023 309.574 304.342 309.65L299.328 309.783C295.976 309.868 292.624 309.878 289.282 309.887C285.939 309.897 282.578 309.887 279.236 309.783C275.893 309.678 272.541 309.612 269.189 309.412Z" fill="#263238"/>
<path d="M269.189 320.585C271.221 320.386 273.253 320.301 275.285 320.225C277.318 320.149 279.35 320.12 281.382 320.111C283.414 320.101 285.446 320.111 287.487 320.215L290.535 320.348C291.551 320.433 292.567 320.471 293.583 320.585C292.567 320.69 291.551 320.737 290.535 320.813L287.487 320.946C285.446 321.032 283.414 321.051 281.382 321.06C279.35 321.07 277.318 321.06 275.285 320.946C273.253 320.832 271.221 320.775 269.189 320.585Z" fill="#263238"/>
<path d="M269.189 326.177C273.871 325.977 278.561 325.892 283.243 325.816C287.924 325.74 292.605 325.74 297.296 325.702C301.987 325.664 306.659 325.702 311.34 325.806L318.367 325.939C320.712 326.025 323.048 326.072 325.393 326.177C323.048 326.281 320.712 326.329 318.367 326.405L311.34 326.538C306.659 326.613 301.977 326.613 297.296 326.651C292.615 326.689 287.924 326.651 283.243 326.538C278.561 326.424 273.871 326.367 269.189 326.177Z" fill="#263238"/>
<path d="M269.189 331.749C273.168 331.559 277.137 331.464 281.116 331.388C285.094 331.312 289.064 331.312 293.042 331.274C297.021 331.236 300.99 331.274 304.969 331.388L310.932 331.521C312.916 331.597 314.91 331.644 316.895 331.749C314.91 331.853 312.916 331.901 310.932 331.986L304.969 332.119C300.99 332.195 297.021 332.186 293.042 332.224C289.064 332.262 285.094 332.224 281.116 332.11C277.137 331.996 273.187 331.948 269.189 331.749Z" fill="#263238"/>
<path d="M269.189 337.331C272.475 337.141 275.751 337.046 279.036 336.97C282.322 336.894 285.598 336.875 288.883 336.856C292.169 336.837 295.445 336.856 298.73 336.97L303.658 337.103C305.301 337.179 306.934 337.226 308.577 337.331C306.934 337.445 305.301 337.492 303.658 337.568L298.73 337.701C295.445 337.786 292.169 337.796 288.883 337.805C285.598 337.815 282.322 337.805 279.036 337.701C275.751 337.596 272.475 337.568 269.189 337.331Z" fill="#263238"/>
<g opacity="0.5">
<path d="M279.312 274.593L275.855 276.843L279.758 275.343L281.23 277.802L279.653 279.178L281.666 278.523L282.227 279.472L280.081 281.029L282.531 279.976L282.958 280.687L254.006 297.983L252.734 295.857L255.003 294.357L252.401 295.287L251.86 294.385L253.56 293.17L251.575 293.901L251.309 293.465L254.015 291.272L250.626 292.326L249.704 290.778L278.656 273.492L279.312 274.593Z" fill="white"/>
<path d="M344.954 296.275L341.754 293.778L344.385 296.939L342.533 299.122L340.748 298.097L341.992 299.758L341.27 300.603L339.143 299.113L340.89 301.059L340.358 301.685L315.072 280.222L316.677 278.333L318.785 279.966L317.104 277.84L317.788 277.023L319.459 278.229L318.148 276.606L318.481 276.216L321.396 278.049L319.335 275.201L320.494 273.834L345.78 295.297L344.954 296.275Z" fill="white"/>
</g>
<path d="M388.577 248.858H335.326L323.409 240.685L335.326 232.521H388.577V248.858Z" fill="#068932"/>
<path d="M400 228.288H346.739L334.832 220.114L346.739 211.941H400V228.288Z" fill="#455A64"/>
<path d="M43.3947 407.899L195.086 408.545C231.957 379.602 235.765 336.723 209.462 310.77C193.538 295.05 173.322 298.221 154.075 295.714H154.018C147.22 295.007 140.606 293.078 134.495 290.019C114.678 279.577 103.502 254.896 86.8273 234.164C84.7478 231.563 82.5828 229.028 80.2944 226.57C66.5828 211.932 39.2926 211.457 25.0208 232.028C-11.2332 284.276 5.41248 362.097 43.3947 407.899Z" fill="#DBDBDB"/>
<path d="M40.0428 288.263C44.0119 350.478 115.893 373.697 160.779 355.063C199.815 338.859 187.034 301.904 154.132 295.677H154.075C147.277 294.969 140.663 293.04 134.552 289.981C114.735 279.539 103.558 254.858 86.8843 234.126C62.006 221.187 37.1276 242.698 40.0428 288.263Z" fill="#C7C7C7"/>
<path d="M92.6671 203.341C103.482 213.593 110.918 240.258 105.439 257.089C98.9056 277.137 81.016 287.37 66.3454 282.624C53.0516 278.314 47.1549 264.854 52.0451 254.839C56.7929 245.175 65.7947 241.634 67.4659 233.006C68.2635 228.886 66.8866 222.051 67.2285 215.843C67.8362 204.575 84.2255 195.367 92.6671 203.341Z" fill="#263238"/>
<path d="M50.2599 257.155C50.8299 255.058 51.7169 253.061 52.8902 251.232C54.0076 249.448 55.3337 247.804 56.8404 246.333C58.3407 244.881 59.8125 243.381 61.2368 241.815C62.7026 240.229 63.9773 238.477 65.035 236.594C65.5832 235.618 66.044 234.595 66.4119 233.537C66.745 232.436 66.9427 231.298 67.0006 230.148C67.0693 227.882 67.0185 225.613 66.8487 223.352C66.703 221.132 66.8114 218.902 67.1715 216.707C67.6853 214.549 68.5619 212.495 69.7638 210.631C68.4225 212.421 67.4215 214.442 66.8107 216.593C66.3582 218.816 66.1701 221.084 66.2504 223.352C66.2504 225.611 66.4499 227.87 66.2504 230.063C66.1773 231.139 65.9797 232.203 65.6617 233.233C65.2959 234.219 64.8481 235.171 64.3229 236.081C62.2908 239.831 59.2237 242.726 56.3561 245.802C54.8892 247.363 53.6141 249.093 52.5579 250.956C51.4638 252.886 50.6879 254.979 50.2599 257.155Z" fill="#263238"/>
<path d="M170.91 435.941C168.679 435.124 118.315 394.885 117.365 392.141C117.004 391.097 122.436 383.427 129.263 374.342C130.735 372.377 132.273 370.356 133.84 368.315C144.019 355.025 155.129 341.232 155.129 341.232L188.895 368.049L166.685 394.401L161.814 400.191C161.814 400.191 174.158 424.217 174.917 427.34C175.677 430.463 173.142 436.757 170.91 435.941Z" fill="#D3766A"/>
<path d="M170.91 435.941C168.679 435.124 118.315 394.885 117.365 392.141C116.928 390.869 125.037 379.801 133.84 368.315L166.685 394.401L161.814 400.191C161.814 400.191 174.158 424.217 174.917 427.34C175.677 430.463 173.142 436.757 170.91 435.941Z" fill="white"/>
<path d="M170.91 435.941C168.679 435.124 118.315 394.885 117.365 392.141C117.004 391.097 122.436 383.427 129.263 374.342L161.814 400.22C161.814 400.22 174.158 424.246 174.917 427.369C175.677 430.492 173.142 436.757 170.91 435.941Z" fill="#068932"/>
<path d="M171.803 433.349C163.523 426.4 129.481 399.175 120.774 392.901C120.698 392.844 120.66 392.901 120.726 392.901C128.779 399.973 163.039 426.96 171.689 433.444C171.869 433.624 171.974 433.501 171.803 433.349Z" fill="#263238"/>
<path d="M173.123 422.946C172.205 422.17 171.136 421.594 169.983 421.254C168.831 420.914 167.62 420.817 166.428 420.971C164.28 421.223 162.313 422.299 160.94 423.971C160.94 424.019 160.997 424.095 161.044 424.047C162.668 422.605 164.715 421.728 166.88 421.548C169.044 421.369 171.208 421.896 173.047 423.05C173.061 423.056 173.076 423.057 173.09 423.053C173.105 423.049 173.117 423.04 173.126 423.028C173.135 423.016 173.139 423.001 173.139 422.986C173.138 422.971 173.132 422.957 173.123 422.946Z" fill="#263238"/>
<path d="M164.415 403.646C161.073 400.894 156.202 398.957 151.891 400.049C151.729 400.049 151.786 400.324 151.891 400.353C156.083 401.164 160.177 402.421 164.102 404.102C164.162 404.144 164.237 404.159 164.309 404.146C164.381 404.133 164.445 404.091 164.487 404.031C164.528 403.971 164.544 403.896 164.531 403.824C164.517 403.752 164.476 403.688 164.415 403.646Z" fill="#263238"/>
<path d="M166.21 406.741C162.868 403.998 157.996 402.061 153.685 403.143C153.524 403.191 153.581 403.428 153.685 403.457C157.878 404.268 161.972 405.525 165.897 407.206C165.958 407.248 166.034 407.263 166.107 407.249C166.18 407.235 166.244 407.192 166.286 407.13C166.328 407.069 166.343 406.993 166.329 406.92C166.314 406.847 166.272 406.783 166.21 406.741Z" fill="#263238"/>
<path d="M168.005 409.845C164.662 407.102 159.791 405.165 155.48 406.248C155.319 406.248 155.376 406.523 155.48 406.551C159.676 407.372 163.77 408.645 167.691 410.348C167.724 410.369 167.761 410.383 167.8 410.389C167.838 410.396 167.877 410.394 167.915 410.385C167.953 410.377 167.989 410.36 168.021 410.338C168.052 410.315 168.079 410.286 168.1 410.253C168.12 410.22 168.134 410.184 168.141 410.145C168.147 410.107 168.146 410.068 168.137 410.03C168.128 409.992 168.112 409.956 168.089 409.924C168.066 409.893 168.038 409.866 168.005 409.845Z" fill="#263238"/>
<path d="M169.799 412.949C166.457 410.196 161.586 408.26 157.284 409.342C157.113 409.389 157.18 409.627 157.284 409.655C161.477 410.465 165.571 411.722 169.496 413.405C169.556 413.445 169.63 413.46 169.701 413.445C169.772 413.431 169.835 413.389 169.875 413.329C169.916 413.268 169.93 413.195 169.916 413.123C169.902 413.052 169.86 412.989 169.799 412.949Z" fill="#263238"/>
<path d="M129.329 386.597C125.531 383.579 120.831 389.445 124.639 392.502C128.446 395.559 133.137 389.626 129.329 386.597Z" fill="white"/>
<path d="M175.269 397.543C174.699 394.761 171.471 394.429 169.201 395.056C165.395 396.208 161.959 398.343 159.24 401.245C159.227 401.255 159.215 401.269 159.208 401.285C159.2 401.3 159.196 401.318 159.196 401.335C159.196 401.352 159.2 401.37 159.208 401.385C159.215 401.401 159.227 401.415 159.24 401.425C159.206 401.5 159.189 401.581 159.19 401.664C159.192 401.746 159.212 401.827 159.25 401.9C159.287 401.973 159.341 402.037 159.407 402.086C159.473 402.135 159.549 402.169 159.63 402.185C163.371 402.441 167.331 403.181 171.024 402.28C173.208 401.757 175.82 400.22 175.269 397.543ZM165.384 401.416C163.542 401.33 161.719 401.159 159.877 401.14C161.823 399.944 163.675 398.663 165.783 397.657C166.773 397.16 167.794 396.729 168.84 396.366C170.464 395.843 176.038 395.663 173.436 399.612C172.002 401.786 167.577 401.511 165.384 401.416Z" fill="#263238"/>
<path d="M149.83 395.786C152.413 398.587 156.116 400.172 159.326 402.033C159.4 402.068 159.482 402.085 159.565 402.082C159.647 402.079 159.728 402.057 159.8 402.018C159.873 401.978 159.934 401.921 159.981 401.853C160.027 401.785 160.056 401.706 160.066 401.625C160.142 401.625 160.209 401.577 160.19 401.492C159.541 397.564 157.868 393.877 155.338 390.803C153.837 389.037 150.941 387.509 148.909 389.502C146.877 391.496 148.32 394.154 149.83 395.786ZM149.327 392.236C149.327 387.49 153.894 390.755 154.948 392.094C155.621 392.973 156.231 393.9 156.772 394.866C157.865 396.875 158.857 398.937 159.744 401.045C158.205 400.03 156.591 399.147 154.996 398.198C153.135 397.068 149.308 394.837 149.327 392.236Z" fill="#263238"/>
<path d="M223.003 316.484C220.696 334.017 177.424 384.652 172.458 390.461L171.319 391.781L135.558 364.299L135.967 363.768L167.463 322.55L73.524 322L109.189 294.272C109.189 294.272 112.085 295.942 118.096 295.059C138.834 292.031 185.571 285.31 196.596 285.757C210.811 286.307 225.13 300.385 223.003 316.484Z" fill="#37474F"/>
<path d="M178.773 307.191C177.609 308.515 176.524 309.906 175.525 311.358C174.414 312.82 173.284 314.263 172.173 315.725C172.373 315.298 172.563 314.871 172.771 314.444C173.474 312.991 174.034 311.491 174.861 310.105C174.868 310.089 174.87 310.07 174.866 310.053C174.861 310.035 174.85 310.02 174.835 310.01C174.821 309.999 174.802 309.995 174.784 309.997C174.766 309.999 174.75 310.007 174.737 310.02C173.882 311.406 172.895 312.716 172.164 314.168C171.812 314.852 171.49 315.535 171.214 316.238C171.053 316.627 170.882 317.016 170.73 317.405C170.654 317.588 170.587 317.775 170.531 317.965C170.027 318.639 169.581 319.323 169.059 320.016C167.995 321.554 167.065 323.177 165.992 324.696C165.935 324.781 166.058 324.857 166.125 324.781C167.207 323.348 168.423 322.009 169.534 320.585C170.644 319.161 171.717 317.652 172.771 316.152C173.825 314.652 174.804 313.219 175.829 311.748C176.956 310.307 177.993 308.798 178.934 307.229C178.896 307.239 178.82 307.191 178.773 307.191Z" fill="#263238"/>
<path d="M92.5436 261.427C97.6237 271.176 117.09 302.369 127.99 303.631C135.141 304.457 163.124 298.942 167.369 291.775C169.201 288.652 163.618 268.679 159.924 269.856C156.23 271.033 133.849 276.254 130.982 275.723C128.114 275.191 104.878 253.216 96.4938 248.014C82.0415 239.053 89.8089 256.177 92.5436 261.427Z" fill="#D3766A"/>
<path d="M151.217 269.22L154.825 299.701C154.825 299.701 132.805 305.995 122.863 303.233C110.775 299.882 91.1953 264.313 88.451 258.475C83.9502 248.83 84.6528 242.783 90.2552 243.903C92.4392 244.321 95.3543 245.802 99.0006 248.65C102.799 251.592 124.838 270.853 131.627 274.28C135.416 276.292 151.217 269.22 151.217 269.22Z" fill="#455A64"/>
<path d="M151.217 269.22L154.825 299.711C154.825 299.711 151.169 300.755 146.165 301.799C138.891 303.327 128.76 304.865 122.863 303.232C110.785 299.882 91.1952 264.312 88.451 258.465C85.1941 251.497 84.6528 246.4 86.7513 244.539C87.2436 244.16 87.8191 243.904 88.43 243.792C89.041 243.68 89.6699 243.715 90.2647 243.894C92.4297 244.321 95.3543 245.792 99.0006 248.64C102.799 251.583 124.828 270.853 131.618 274.327C135.416 276.302 151.217 269.22 151.217 269.22Z" fill="#068932"/>
<path d="M149.213 299.597C148.539 295.107 146.478 276.644 146.307 272.619C146.307 272.343 146.469 272.267 146.516 272.552C148.843 285.956 148.957 295.126 149.365 299.559C149.393 299.673 149.223 299.711 149.213 299.597Z" fill="#263238"/>
<path d="M88.451 258.475C91.1858 264.351 110.785 299.901 122.853 303.242C125.835 304.068 129.909 304.077 134.144 303.707L89.5145 243.799C89.0271 243.72 88.5284 243.746 88.0518 243.875C87.5753 244.005 87.1319 244.234 86.7513 244.549C84.6623 246.438 85.1751 251.507 88.451 258.475Z" fill="#263238"/>
<path d="M54.9128 318.279L112.038 303.688L106.407 283.07C106.407 283.07 110.927 276.606 108.999 270.435C107.29 264.939 94.2623 248.602 91.632 246.409C87.1217 242.679 79.0504 241.426 74.635 246.637C56.4225 268.1 54.9128 318.279 54.9128 318.279Z" fill="#068932"/>
<path opacity="0.1" d="M88.4985 244.473L73.3056 248.27C73.7329 247.71 74.1697 247.169 74.616 246.637L74.9294 246.286L85.8303 243.59C86.7462 243.797 87.6398 244.093 88.4985 244.473ZM92.0783 246.817L70.6374 252.2C70.5424 252.361 70.438 252.523 70.3525 252.684L92.4107 247.15L92.0783 246.817ZM94.8415 249.874L68.254 256.519C67.9596 257.108 67.6653 257.715 67.3804 258.323L95.943 251.184C95.5632 250.719 95.1929 250.282 94.8415 249.874ZM98.1175 253.88L65.7282 262.006L65.5383 262.461L98.3929 254.231L98.1175 253.88ZM100.539 257.022L64.1329 266.154C63.924 266.736 63.7246 267.315 63.5347 267.891L101.517 258.399C101.213 257.905 100.871 257.459 100.539 257.022ZM103.53 261.104L62.3858 271.423C62.3327 271.565 62.2883 271.711 62.2528 271.859L103.748 261.417C103.691 261.341 103.606 261.227 103.53 261.104ZM105.695 264.303L61.2368 275.457C61.0944 276.017 60.9424 276.587 60.7905 277.147L106.569 265.67C106.293 265.233 106.008 264.778 105.695 264.303ZM108.183 268.518L59.9549 280.611C59.9549 280.754 59.8884 280.906 59.8504 281.048L108.363 268.878C108.313 268.754 108.252 268.633 108.183 268.518ZM109.351 271.964L59.0813 284.57L58.7395 286.241L109.474 273.52C109.475 272.999 109.434 272.478 109.351 271.964ZM58.0748 289.648C58.0748 289.791 58.0178 289.943 57.9988 290.085L108.961 277.308C108.961 277.156 109.037 277.014 109.066 276.862L58.0748 289.648ZM57.4101 293.56C57.3246 294.12 57.2392 294.67 57.1632 295.211L106.54 282.823C106.917 282.228 107.263 281.613 107.575 280.982L57.4101 293.56ZM107.157 285.918L56.6884 298.581L56.6315 299.008L107.29 286.307L107.157 285.918ZM108.107 289.421L56.2231 302.445C56.1567 303.005 56.0902 303.546 56.0332 304.077L108.544 290.902L108.107 289.421ZM109.341 293.949L55.6819 307.409C55.6819 307.552 55.6819 307.694 55.6819 307.837L109.522 294.338L109.341 293.949ZM110.291 297.451L55.3495 311.235C55.3495 311.804 55.2641 312.346 55.2261 312.849L110.737 298.932L110.291 297.451ZM111.525 301.97L55.0267 316.152C55.0267 316.295 55.0267 316.437 55.0267 316.57L111.706 302.331L111.525 301.97Z" fill="black"/>
<path d="M99.2475 254.867C100.681 256.652 102.239 258.361 103.72 260.117C103.065 258.826 102.409 257.544 101.697 256.32C101.697 256.32 101.697 256.272 101.697 256.32C102.769 257.804 103.686 259.394 104.432 261.066C105.546 262.382 106.561 263.778 107.471 265.243C108.599 266.947 109.409 268.841 109.864 270.834C110.221 272.863 110.133 274.946 109.607 276.938C108.974 279.245 108.129 281.489 107.081 283.64C106.948 283.924 106.521 283.716 106.626 283.431C108.031 279.634 109.617 275.628 108.99 271.555C108.363 267.483 105.97 264.028 103.634 260.734C102.253 258.712 100.743 256.781 99.1145 254.953C99.0481 254.886 99.1905 254.791 99.2475 254.867Z" fill="#263238"/>
<path d="M97.975 280.365C95.3621 281.315 92.8231 282.457 90.3786 283.782C89.1727 284.466 88.0142 285.187 86.8652 285.946C86.286 286.326 85.7068 286.677 85.1181 287.029C84.5275 287.424 83.8894 287.743 83.219 287.978C83.2064 287.978 83.1943 287.983 83.1854 287.992C83.1765 288.001 83.1715 288.013 83.1715 288.025C83.1715 288.038 83.1765 288.05 83.1854 288.059C83.1943 288.068 83.2064 288.073 83.219 288.073C83.8834 287.933 84.5371 287.746 85.175 287.513C85.7839 287.265 86.3769 286.979 86.9507 286.658C88.1756 285.984 89.3626 285.254 90.5875 284.57C93.0468 283.184 95.4967 281.798 98.051 280.593C98.1839 280.517 98.0985 280.317 97.975 280.365Z" fill="#263238"/>
<path d="M105.201 280.953C102.932 281.315 100.684 281.803 98.4689 282.415C97.3579 282.719 96.2849 283.089 95.2119 283.497C94.6991 283.687 94.1959 283.886 93.6926 284.095C93.1893 284.304 92.6006 284.627 92.0499 284.845C91.9834 284.845 92.0499 284.959 92.0499 284.94C92.5911 284.75 93.1513 284.646 93.7021 284.484L95.3353 284C96.4368 283.678 97.5288 283.364 98.6208 283.051C100.805 282.387 102.989 281.751 105.201 281.152C105.372 281.105 105.325 280.934 105.201 280.953Z" fill="#263238"/>
<path d="M80.4273 246.485C80.7691 247.51 86.419 253.852 91.1952 253.178C92.743 252.959 91.9169 244.416 91.9169 244.416L92.0024 243.78L93.1513 234.752L82.146 229.057L80.5697 228.307C80.5697 228.307 80.4178 230.803 80.2564 233.898V234.344C80.2564 234.515 80.2564 234.686 80.2564 234.847C80.2564 235.312 80.1994 235.796 80.1804 236.252C80.1614 236.708 80.1804 236.964 80.1804 237.344V238.464C80.0791 241.14 80.1616 243.82 80.4273 246.485Z" fill="#D3766A"/>
<path d="M80.2659 233.907C81.3893 236.307 83.022 238.433 85.0505 240.138C87.0789 241.843 89.4544 243.085 92.0119 243.78L93.1608 234.752L82.1555 229.057L80.5792 228.307C80.5792 228.307 80.4273 230.813 80.2659 233.907Z" fill="#263238"/>
<path d="M104.451 218.634C108.525 234.069 99.7033 238.255 96.4083 239.128C93.3887 239.926 82.9911 242.242 77.3412 227.31C71.6914 212.378 77.5786 205.619 84.3964 203.436C91.2142 201.252 100.368 203.208 104.451 218.634Z" fill="#D3766A"/>
<path d="M101.697 217.96C101.33 217.979 100.963 217.979 100.596 217.96C100.207 218.003 99.8136 217.92 99.4754 217.723C99.382 217.639 99.3186 217.526 99.2946 217.403C99.2707 217.28 99.2874 217.152 99.3424 217.039C99.488 216.835 99.6854 216.674 99.9141 216.572C100.143 216.471 100.395 216.432 100.643 216.46C101.158 216.435 101.663 216.604 102.058 216.935C102.137 217.016 102.191 217.117 102.215 217.227C102.239 217.338 102.232 217.452 102.195 217.559C102.157 217.665 102.091 217.759 102.003 217.83C101.915 217.901 101.809 217.946 101.697 217.96Z" fill="#263238"/>
<path d="M90.7679 219.489C91.1145 219.366 91.4538 219.223 91.784 219.061C92.1606 218.962 92.4943 218.742 92.7335 218.435C92.7885 218.322 92.8052 218.194 92.7813 218.071C92.7573 217.947 92.6939 217.835 92.6006 217.751C92.3903 217.615 92.1476 217.537 91.8974 217.525C91.6471 217.513 91.3983 217.568 91.1762 217.684C90.6913 217.848 90.2848 218.186 90.0368 218.634C89.9762 218.741 89.9501 218.864 89.9619 218.986C89.9738 219.109 90.023 219.224 90.1028 219.318C90.1827 219.411 90.2894 219.477 90.4084 219.508C90.5274 219.539 90.6529 219.532 90.7679 219.489Z" fill="#263238"/>
<path d="M93.6546 222.061C93.6546 222.061 93.5786 222.137 93.5881 222.174C93.854 223.228 93.9774 224.482 93.0943 225.023C93.0943 225.023 93.0943 225.099 93.0943 225.08C94.2528 224.681 94.0724 223.02 93.6546 222.061Z" fill="#263238"/>
<path d="M92.4676 221.159C90.73 221.396 91.3282 224.851 92.9424 224.633C94.5567 224.415 93.9205 220.959 92.4676 221.159Z" fill="#263238"/>
<path d="M91.8219 221.462C91.5561 221.709 91.3187 222.108 90.9578 222.203C90.597 222.298 90.1602 222.013 89.8279 221.709C89.8279 221.709 89.7709 221.709 89.7709 221.766C89.8849 222.431 90.2552 223.058 90.9768 223.039C91.6985 223.02 92.0119 222.346 92.0593 221.652C92.0688 221.519 91.9264 221.358 91.8219 221.462Z" fill="#263238"/>
<path d="M99.8932 220.57C99.8932 220.57 99.9786 220.57 99.9881 220.656C100.131 221.729 100.482 222.944 101.507 223.134V223.2C100.301 223.229 99.8552 221.615 99.8932 220.57Z" fill="#263238"/>
<path d="M100.662 219.298C102.362 218.88 103.074 222.317 101.498 222.697C99.9217 223.076 99.2285 219.649 100.662 219.298Z" fill="#263238"/>
<path d="M101.422 219.374C101.735 219.498 102.068 219.773 102.371 219.725C102.675 219.678 102.951 219.241 103.122 218.842C103.122 218.795 103.122 218.842 103.179 218.842C103.331 219.488 103.255 220.219 102.656 220.476C102.058 220.732 101.564 220.238 101.27 219.612C101.242 219.526 101.317 219.317 101.422 219.374Z" fill="#263238"/>
<path d="M95.6201 231.164C95.905 231.392 96.2089 231.705 96.5697 231.686C96.9676 231.624 97.3488 231.482 97.6902 231.268C97.6902 231.268 97.7661 231.268 97.7471 231.268C97.6204 231.5 97.4335 231.693 97.2061 231.826C96.9788 231.96 96.7195 232.03 96.4558 232.028C96.2328 231.994 96.0244 231.896 95.8559 231.746C95.6874 231.596 95.566 231.401 95.5062 231.183C95.4492 231.174 95.5252 231.136 95.6201 231.164Z" fill="#263238"/>
<path d="M99.3139 226.503C99.3139 226.503 99.8362 228.06 99.9786 228.81C99.9786 228.876 99.8172 228.952 99.5608 229.009C98.9369 229.249 98.2588 229.311 97.6018 229.188C96.9447 229.066 96.3344 228.764 95.8386 228.316C95.8254 228.304 95.8171 228.287 95.8153 228.269C95.8134 228.251 95.8181 228.233 95.8284 228.218C95.8387 228.203 95.854 228.192 95.8716 228.188C95.8891 228.183 95.9077 228.185 95.924 228.193C97.0075 228.671 98.216 228.787 99.3709 228.525C99.3709 228.307 98.4213 225.886 98.5068 225.858C99.1022 225.801 99.7025 225.823 100.292 225.924C99.3424 222.659 97.8041 219.573 96.8736 216.298C96.8647 216.274 96.8655 216.247 96.8758 216.222C96.8861 216.198 96.9051 216.179 96.929 216.168C96.953 216.157 96.9801 216.156 97.0051 216.164C97.03 216.173 97.0508 216.19 97.0635 216.213C98.7752 219.471 100.156 222.893 101.185 226.427C101.317 226.826 99.6463 226.551 99.3139 226.503Z" fill="#263238"/>
<path d="M77.5027 228.174C78.467 227.56 79.2567 226.709 79.7957 225.701C80.3346 224.693 80.6045 223.564 80.5792 222.421C83.229 220.901 85.4226 218.698 86.9318 216.042C86.8653 216.384 86.3525 218.833 86.0582 220.076C95.943 217.077 98.222 209.008 98.222 209.008C100.347 210.571 102.093 212.593 103.331 214.922C103.331 214.922 102.713 208.723 99.0766 204.926C97.8854 203.596 96.3609 202.606 94.6601 202.061C92.9594 201.515 91.1438 201.433 89.4006 201.822C86.8416 201.492 84.241 201.858 81.8728 202.882C79.5047 203.907 77.4569 205.551 75.9454 207.641C70.1721 215.52 77.5027 228.174 77.5027 228.174Z" fill="#263238"/>
<path d="M93.5501 217.561C92.0246 218.628 90.3473 219.46 88.5745 220.029C91.3261 218.94 93.7198 217.105 95.4872 214.732C96.236 213.718 96.8549 212.615 97.3294 211.448C97.9116 210.193 98.2345 208.834 98.2789 207.451C98.2789 207.347 98.4308 207.347 98.4308 207.451C98.5397 208.819 98.4177 210.196 98.07 211.524C97.6615 212.826 97.0178 214.042 96.1709 215.112C95.4145 216.053 94.5327 216.887 93.5501 217.589" fill="#263238"/>
<path d="M80.114 227.851C80.114 227.851 75.8315 223.541 73.8089 225.146C71.7864 226.75 75.6131 233.423 78.3953 233.945C78.7478 234.037 79.1152 234.055 79.4753 234.001C79.8354 233.946 80.1807 233.819 80.4904 233.628C80.8001 233.436 81.0677 233.184 81.2772 232.886C81.4867 232.588 81.6336 232.251 81.7092 231.895L80.114 227.851Z" fill="#D3766A"/>
<path d="M74.9483 227.035V227.101C76.9139 227.528 78.1768 229.066 79.1549 230.708C79.0149 230.544 78.841 230.412 78.6451 230.322C78.4491 230.231 78.2359 230.185 78.0201 230.185C77.8044 230.185 77.5911 230.231 77.3952 230.322C77.1993 230.412 77.0254 230.544 76.8854 230.708C76.8854 230.708 76.8854 230.813 76.9519 230.794C77.2565 230.637 77.6021 230.577 77.9418 230.623C78.2816 230.669 78.599 230.818 78.851 231.05C79.2696 231.446 79.6452 231.885 79.9715 232.36C80.0854 232.512 80.3608 232.36 80.2658 232.189C79.886 229.788 77.5026 226.835 74.9483 227.035Z" fill="#263238"/>
<path d="M68.0166 254.554C59.4706 267.939 49.6902 289.307 49.4243 304.419C49.2914 311.795 62.0534 318.497 66.7062 316.266C77.6261 310.998 92.838 298.904 98.8202 290.93C100.938 288.082 78.3288 269.182 76.667 272.562C75.0053 275.941 73.9798 277.916 72.3181 279.207C71.5015 279.843 76.3062 269.904 78.7276 255.987C82.0225 236.992 71.1121 249.703 68.0166 254.554Z" fill="#D3766A"/>
<path d="M94.5472 240.097C94.5472 240.097 91.0053 235.711 94.1958 233.547C97.3863 231.382 100.169 236.262 100.169 236.262L94.5472 240.097Z" fill="#FF91B4"/>
<path d="M100.032 236.111L94.4164 239.942L116.757 272.67L122.373 268.839L100.032 236.111Z" fill="#068932"/>
<path opacity="0.2" d="M100.032 236.111L94.4164 239.942L116.757 272.67L122.373 268.839L100.032 236.111Z" fill="black"/>
<path d="M100.387 235.602L93.8292 240.076L94.7179 241.378L101.276 236.904L100.387 235.602Z" fill="#37474F"/>
<path d="M101.357 237.042L94.7996 241.516L95.6883 242.817L102.246 238.344L101.357 237.042Z" fill="#37474F"/>
<path d="M122.388 268.803L123.034 274.289L123.252 276.093L121.638 275.239L116.767 272.638V271.442L117.878 271.878V270.673L118.998 271.109V269.913L120.128 270.34V269.144L121.249 269.571V268.375L122.388 268.803Z" fill="white"/>
<path d="M123.034 274.289L123.252 276.093L121.638 275.239L123.034 274.289Z" fill="#37474F"/>
<path d="M110.728 245.365C112.75 248.156 105.448 252.551 105.448 252.551C106.93 252.49 108.386 252.954 109.56 253.861C111.563 255.551 109.788 259.424 109.788 259.424C111.339 259.681 112.776 260.402 113.909 261.493C115.656 263.306 114.421 267.464 114.421 267.464C115.716 268.491 116.596 269.951 116.9 271.574C117.545 275.932 112.076 279.947 109.18 283.108C106.075 286.488 99.9881 289.706 97.6332 292.164L75.9454 274.308C75.9454 274.308 82.8867 256.69 88.9733 251.944C92.3632 249.286 107.642 241.103 110.728 245.365Z" fill="#D3766A"/>
<path d="M105.334 252.513C100.909 254.07 96.8736 256.671 92.9899 259.234C92.9044 259.291 92.9899 259.424 93.0849 259.367C96.8831 256.775 101.507 255.143 105.429 252.722C105.457 252.709 105.478 252.686 105.489 252.658C105.5 252.629 105.499 252.598 105.486 252.57C105.473 252.542 105.45 252.521 105.422 252.51C105.393 252.499 105.362 252.501 105.334 252.513Z" fill="#263238"/>
<path d="M109.484 259.205C108.514 259.659 107.608 260.236 106.787 260.924C105.837 261.588 104.973 262.281 104.09 262.983C102.305 264.376 100.561 265.822 98.8581 267.322C98.7822 267.388 98.8581 267.511 98.9436 267.455C100.719 266.059 102.514 264.692 104.356 263.373C105.306 262.708 106.189 262.063 107.119 261.408C108.031 260.87 108.882 260.233 109.655 259.509C109.695 259.486 109.725 259.449 109.737 259.404C109.749 259.36 109.744 259.312 109.721 259.272C109.698 259.232 109.661 259.202 109.616 259.189C109.572 259.177 109.524 259.183 109.484 259.205Z" fill="#263238"/>
<path d="M114.345 267.521C113.475 267.942 112.682 268.507 112 269.192C111.202 269.847 110.405 270.502 109.598 271.147C107.993 272.438 106.379 273.729 104.726 274.944C104.641 275.001 104.726 275.134 104.821 275.077C106.502 273.824 108.211 272.6 109.882 271.337C110.709 270.72 111.525 270.094 112.342 269.439C113.14 268.932 113.844 268.289 114.421 267.54C114.421 267.54 114.393 267.512 114.345 267.521Z" fill="#263238"/>
<path d="M87.7863 253.007C89.4554 250.95 91.716 249.456 94.2623 248.725C94.3667 248.725 94.3667 248.725 94.2623 248.801C91.9463 249.939 89.7832 251.365 87.8243 253.045L87.7863 253.007Z" fill="#263238"/>
<path d="M99.8932 294.907L76.3157 271.698L72.7169 278.219C72.7169 278.219 78.0914 263.705 79.4587 255.788C80.8261 247.871 80.5982 238.587 70.5519 250.453C60.7145 262.072 47.5347 295.591 48.2089 304.277C48.8831 312.963 59.9359 318.222 65.5003 317.225C71.0647 316.228 99.8932 294.907 99.8932 294.907Z" fill="#068932"/>
<path d="M93.7211 297.414C90.4261 294.291 77.4172 281.02 74.7965 277.963C74.616 277.745 74.711 277.583 74.9294 277.783C85.0232 286.896 90.768 294.044 93.835 297.271C93.93 297.357 93.8255 297.49 93.7211 297.414Z" fill="#263238"/>
<path d="M55.8528 301.733C57.1252 299.53 58.6065 297.414 60.0214 295.287C61.4362 293.161 62.87 291.006 64.3513 288.918C65.8326 286.829 67.4469 284.788 69.0421 282.747C69.8303 281.722 71.378 279.729 72.1757 278.713C72.9733 277.697 73.0493 277.935 72.2991 279.036C71.549 280.137 70.1056 282.13 69.384 283.194C67.9691 285.282 66.5353 287.389 65.1205 289.449C63.7056 291.509 62.1294 293.55 60.6196 295.591C59.1098 297.632 57.638 299.796 56.0143 301.809C55.9478 301.894 55.8053 301.828 55.8528 301.733Z" fill="#263238"/>
<path d="M74.673 271.014C75.4896 268.613 76.4771 266.268 77.1133 263.781C77.1133 263.686 77.2937 263.724 77.2653 263.781C76.7905 265.404 76.4202 267.046 75.9929 268.679C76.0374 268.615 76.0786 268.548 76.1163 268.48C76.4866 267.853 76.8475 267.208 77.1988 266.581C77.2463 266.496 77.3792 266.581 77.3317 266.667C77.0089 267.322 76.686 267.986 76.3822 268.651C76.1667 269.199 75.8963 269.723 75.5751 270.217C75.4706 270.568 75.3756 270.919 75.2617 271.271C74.5279 273.683 73.6235 276.04 72.5555 278.324C72.5368 278.35 72.5099 278.369 72.4793 278.377C72.4486 278.386 72.4158 278.384 72.3862 278.372C72.3566 278.36 72.332 278.339 72.3162 278.311C72.3004 278.283 72.2944 278.251 72.2991 278.219C73.0018 275.808 73.8469 273.397 74.673 271.014Z" fill="#263238"/>
<path d="M76.1353 271.565C76.2113 271.442 76.7905 272.049 77.0849 272.372C77.1324 272.419 77.0849 272.448 76.9994 272.372C76.914 272.296 76.5911 272.144 76.4107 271.992C75.8599 273.093 72.8024 278.286 72.6125 278.514C72.4226 278.741 72.4226 278.514 72.47 278.381C72.603 277.84 75.4516 272.695 76.1353 271.565Z" fill="#263238"/>
<path d="M73.2392 313.181C80.038 308.216 86.9697 303.413 94.0629 298.866C95.962 297.613 97.8611 296.274 99.7602 294.974C99.5513 294.841 97.6332 292.81 97.5763 292.734C97.5193 292.658 97.5763 292.639 97.5763 292.677C97.7947 292.857 100.245 294.841 100.425 295.069C100.605 295.297 93.3128 300.128 89.9039 302.54C86.4949 304.951 82.9151 307.238 79.3733 309.517C77.3602 310.808 75.3377 312.08 73.2866 313.314C73.2297 313.361 73.1632 313.238 73.2392 313.181Z" fill="#263238"/>
<path d="M150.59 302.986L115.029 306.061L127.696 259.016L163.257 255.94L150.59 302.986Z" fill="#EBEBEB"/>
<path d="M153.03 302.777L117.46 305.843L130.127 258.797L165.688 255.731L153.03 302.777Z" fill="#068932"/>
<path d="M133.906 258.474C133.731 259.293 133.239 260.009 132.539 260.468C132.216 260.677 132.093 260.24 132.406 260.041C132.862 259.746 133.199 259.298 133.355 258.778C133.383 258.694 133.405 258.609 133.422 258.522C133.499 258.236 133.499 257.935 133.422 257.649C133.384 257.529 133.307 257.425 133.204 257.354H133.156C133.134 257.359 133.111 257.359 133.09 257.354C133.01 257.327 132.923 257.327 132.843 257.354C132.692 257.426 132.56 257.53 132.453 257.658C132.328 257.812 132.223 257.981 132.14 258.161C132.14 258.247 132.055 258.342 132.007 258.436V258.493V258.588C132.004 258.61 132.004 258.633 132.007 258.655L131.504 258.702C131.596 258.369 131.733 258.049 131.912 257.753C132.045 257.51 132.23 257.299 132.453 257.135C132.676 256.971 132.932 256.858 133.204 256.804C133.403 256.782 133.603 256.838 133.762 256.96C133.922 257.082 134.028 257.26 134.058 257.459C134.093 257.805 134.041 258.154 133.906 258.474Z" fill="#455A64"/>
<path d="M136.688 258.237C136.513 259.056 136.022 259.772 135.321 260.231C134.998 260.439 134.875 260.003 135.198 259.803C135.649 259.503 135.983 259.057 136.147 258.541C136.147 258.456 136.195 258.361 136.204 258.285C136.281 257.999 136.281 257.697 136.204 257.411C136.165 257.29 136.084 257.186 135.976 257.117H135.9C135.82 257.09 135.734 257.09 135.653 257.117C135.505 257.183 135.375 257.284 135.274 257.411C135.094 257.655 134.944 257.92 134.827 258.199V258.256C134.825 258.288 134.825 258.319 134.827 258.351C134.823 258.373 134.823 258.396 134.827 258.418H134.324C134.418 258.084 134.555 257.765 134.732 257.468C134.865 257.226 135.05 257.015 135.273 256.851C135.496 256.687 135.752 256.574 136.024 256.519C136.223 256.497 136.423 256.553 136.583 256.675C136.742 256.797 136.848 256.976 136.878 257.174C136.909 257.539 136.844 257.906 136.688 258.237Z" fill="#455A64"/>
<path d="M139.471 258C139.299 258.815 138.811 259.529 138.113 259.984C137.79 260.202 137.657 259.765 137.98 259.557C138.428 259.257 138.762 258.816 138.929 258.304C138.953 258.216 138.972 258.127 138.986 258.038C139.063 257.752 139.063 257.451 138.986 257.164C138.941 257.046 138.862 256.943 138.758 256.87H138.692C138.604 256.864 138.516 256.88 138.436 256.918C138.286 256.982 138.155 257.083 138.056 257.212C137.924 257.361 137.818 257.531 137.742 257.715C137.689 257.802 137.644 257.894 137.61 257.99V258.057C137.604 258.088 137.604 258.12 137.61 258.152C137.61 258.152 137.61 258.152 137.61 258.209L137.106 258.256C137.2 257.923 137.337 257.604 137.515 257.307C137.651 257.066 137.836 256.858 138.059 256.694C138.281 256.53 138.536 256.416 138.806 256.358C139.006 256.338 139.207 256.396 139.365 256.52C139.524 256.643 139.63 256.823 139.661 257.022C139.682 257.359 139.616 257.695 139.471 258Z" fill="#455A64"/>
<path d="M142.253 257.753C142.169 258.159 142.007 258.543 141.773 258.886C141.54 259.228 141.242 259.52 140.895 259.747C140.572 259.955 140.439 259.519 140.762 259.319C141.216 259.022 141.551 258.575 141.712 258.057C141.736 257.973 141.755 257.887 141.769 257.801C141.845 257.514 141.845 257.213 141.769 256.927C141.727 256.807 141.647 256.703 141.541 256.633H141.493H141.427C141.346 256.61 141.261 256.61 141.18 256.633C141.028 256.702 140.895 256.806 140.791 256.937C140.662 257.088 140.556 257.258 140.477 257.44C140.427 257.529 140.383 257.621 140.344 257.715V257.772V257.867C140.344 257.867 140.344 257.867 140.344 257.933L139.831 257.981C139.924 257.647 140.061 257.328 140.24 257.032C140.376 256.791 140.561 256.582 140.784 256.419C141.006 256.255 141.261 256.14 141.531 256.082C141.732 256.06 141.933 256.116 142.094 256.238C142.255 256.359 142.362 256.538 142.395 256.737C142.433 257.082 142.384 257.432 142.253 257.753Z" fill="#455A64"/>
<path d="M145.044 257.516C144.869 258.334 144.378 259.051 143.677 259.509C143.354 259.718 143.221 259.281 143.544 259.082C143.998 258.784 144.334 258.338 144.494 257.82C144.494 257.734 144.541 257.639 144.551 257.563C144.627 257.277 144.627 256.976 144.551 256.69C144.514 256.567 144.433 256.462 144.323 256.396H144.256C144.176 256.368 144.089 256.368 144.009 256.396C143.858 256.461 143.725 256.562 143.62 256.69C143.495 256.847 143.389 257.019 143.307 257.202C143.259 257.288 143.221 257.383 143.174 257.478V257.535C143.167 257.566 143.167 257.598 143.174 257.63C143.174 257.63 143.174 257.63 143.174 257.696H142.671C142.758 257.362 142.892 257.043 143.069 256.747C143.202 256.504 143.387 256.293 143.61 256.129C143.833 255.965 144.089 255.852 144.361 255.798C144.562 255.773 144.764 255.828 144.926 255.95C145.087 256.072 145.194 256.253 145.225 256.453C145.259 256.817 145.197 257.183 145.044 257.516Z" fill="#455A64"/>
<path d="M147.846 257.279C147.67 258.094 147.178 258.808 146.478 259.262C146.155 259.481 146.023 259.044 146.345 258.835C146.797 258.539 147.132 258.097 147.295 257.582C147.322 257.495 147.344 257.406 147.361 257.316C147.438 257.034 147.438 256.735 147.361 256.453C147.326 256.329 147.249 256.222 147.143 256.149H146.896C146.811 256.141 146.725 256.158 146.649 256.196C146.496 256.259 146.362 256.36 146.26 256.491C146.135 256.644 146.029 256.813 145.947 256.994C145.947 257.079 145.861 257.174 145.814 257.269V257.335C145.809 257.367 145.809 257.399 145.814 257.43C145.814 257.43 145.814 257.43 145.814 257.487H145.31C145.4 257.155 145.534 256.835 145.709 256.538C145.846 256.298 146.032 256.09 146.254 255.927C146.477 255.763 146.731 255.648 147.001 255.589C147.202 255.569 147.403 255.627 147.564 255.75C147.724 255.874 147.832 256.054 147.865 256.253C147.944 256.591 147.937 256.944 147.846 257.279Z" fill="#455A64"/>
<path d="M150.609 257.041C150.43 257.856 149.939 258.568 149.242 259.025C148.919 259.234 148.795 258.797 149.109 258.598C149.565 258.303 149.902 257.856 150.058 257.335C150.086 257.251 150.108 257.166 150.125 257.079C150.202 256.793 150.202 256.492 150.125 256.206C150.087 256.086 150.01 255.982 149.906 255.911H149.859H149.745C149.664 255.889 149.579 255.889 149.498 255.911C149.346 255.981 149.213 256.085 149.109 256.215C148.983 256.369 148.878 256.538 148.795 256.718C148.748 256.804 148.71 256.899 148.662 256.994V257.06C148.659 257.088 148.659 257.117 148.662 257.146C148.659 257.168 148.659 257.19 148.662 257.212H148.159C148.246 256.877 148.384 256.557 148.567 256.263C148.7 256.02 148.885 255.809 149.108 255.645C149.331 255.481 149.587 255.368 149.859 255.313C150.058 255.292 150.258 255.347 150.418 255.469C150.577 255.591 150.683 255.77 150.713 255.968C150.771 256.329 150.735 256.698 150.609 257.041Z" fill="#455A64"/>
<path d="M153.391 256.794C153.216 257.613 152.724 258.329 152.024 258.788C151.701 258.997 151.577 258.56 151.9 258.361C152.351 258.06 152.686 257.615 152.85 257.098C152.85 257.013 152.897 256.918 152.907 256.842C152.983 256.556 152.983 256.254 152.907 255.968C152.867 255.847 152.787 255.743 152.679 255.674H152.603C152.523 255.647 152.436 255.647 152.356 255.674C152.208 255.74 152.077 255.841 151.976 255.968C151.844 256.121 151.738 256.294 151.663 256.481C151.609 256.568 151.565 256.66 151.53 256.756V256.813V256.908C151.526 256.93 151.526 256.953 151.53 256.975H151.027C151.122 256.642 151.259 256.323 151.435 256.025C151.568 255.783 151.753 255.572 151.976 255.408C152.199 255.244 152.455 255.131 152.726 255.076C152.926 255.054 153.126 255.11 153.285 255.232C153.444 255.354 153.55 255.533 153.581 255.731C153.612 256.096 153.547 256.463 153.391 256.794Z" fill="#455A64"/>
<path d="M156.173 256.557C156.002 257.372 155.513 258.086 154.815 258.541C154.493 258.759 154.36 258.323 154.682 258.123C155.129 257.818 155.463 257.374 155.632 256.861C155.656 256.773 155.675 256.684 155.689 256.595C155.766 256.312 155.766 256.014 155.689 255.731C155.647 255.608 155.567 255.502 155.461 255.427H155.357C155.269 255.421 155.18 255.437 155.1 255.475C154.951 255.539 154.82 255.64 154.72 255.769C154.59 255.919 154.485 256.089 154.407 256.272C154.353 256.359 154.309 256.451 154.274 256.547V256.614C154.27 256.645 154.27 256.677 154.274 256.709C154.274 256.709 154.274 256.709 154.274 256.766L153.771 256.813C153.864 256.48 154.002 256.161 154.179 255.864C154.315 255.623 154.501 255.415 154.723 255.251C154.946 255.087 155.2 254.973 155.471 254.915C155.671 254.895 155.871 254.953 156.03 255.077C156.189 255.201 156.295 255.38 156.325 255.579C156.354 255.913 156.302 256.248 156.173 256.557Z" fill="#455A64"/>
<path d="M158.955 256.32C158.784 257.135 158.295 257.848 157.598 258.304C157.275 258.513 157.142 258.076 157.465 257.876C157.916 257.576 158.251 257.13 158.414 256.614C158.439 256.53 158.458 256.444 158.471 256.358C158.548 256.072 158.548 255.77 158.471 255.484C158.43 255.364 158.35 255.26 158.243 255.19H158.177C158.096 255.167 158.011 255.167 157.93 255.19C157.778 255.259 157.645 255.363 157.541 255.494C157.412 255.645 157.306 255.815 157.227 255.997C157.177 256.086 157.133 256.178 157.094 256.272V256.339C157.089 256.37 157.089 256.402 157.094 256.434C157.094 256.434 157.094 256.434 157.094 256.491L156.582 256.538C156.674 256.204 156.811 255.885 156.99 255.589C157.126 255.348 157.311 255.139 157.534 254.976C157.756 254.812 158.011 254.698 158.281 254.639C158.481 254.618 158.681 254.673 158.84 254.795C158.999 254.917 159.105 255.096 159.136 255.294C159.167 255.646 159.105 256 158.955 256.32Z" fill="#455A64"/>
<path d="M161.747 256.073C161.572 256.891 161.08 257.608 160.38 258.066C160.057 258.275 159.924 257.838 160.247 257.639C160.7 257.341 161.036 256.895 161.196 256.377C161.22 256.292 161.239 256.207 161.253 256.12C161.33 255.834 161.33 255.533 161.253 255.247C161.217 255.124 161.136 255.019 161.026 254.953H160.959C160.879 254.925 160.792 254.925 160.712 254.953C160.563 255.021 160.43 255.122 160.323 255.247C160.197 255.404 160.092 255.576 160.009 255.76C160.009 255.845 159.924 255.94 159.877 256.035V256.092C159.869 256.123 159.869 256.155 159.877 256.187C159.877 256.187 159.877 256.234 159.877 256.253H159.373C159.458 255.919 159.593 255.599 159.772 255.304C159.905 255.061 160.09 254.85 160.313 254.686C160.536 254.522 160.792 254.409 161.063 254.355C161.264 254.33 161.467 254.385 161.628 254.507C161.79 254.629 161.897 254.81 161.928 255.01C161.962 255.374 161.899 255.74 161.747 256.073Z" fill="#455A64"/>
<path d="M164.529 255.835C164.353 256.651 163.862 257.364 163.162 257.819C162.839 258.038 162.706 257.601 163.029 257.402C163.479 257.1 163.814 256.655 163.979 256.139C163.979 256.054 164.026 255.959 164.045 255.883C164.122 255.597 164.122 255.296 164.045 255.01C164.01 254.883 163.929 254.775 163.817 254.706H163.77H163.703C163.618 254.698 163.533 254.715 163.456 254.753C163.303 254.816 163.169 254.917 163.067 255.048C162.944 255.203 162.839 255.371 162.754 255.551C162.754 255.636 162.668 255.731 162.621 255.826V255.892C162.617 255.924 162.617 255.956 162.621 255.987C162.621 255.987 162.621 255.987 162.621 256.044L162.117 256.092C162.207 255.759 162.342 255.44 162.516 255.142C162.653 254.903 162.839 254.694 163.061 254.531C163.284 254.367 163.538 254.252 163.808 254.193C164.009 254.174 164.211 254.231 164.371 254.355C164.531 254.478 164.639 254.658 164.672 254.858C164.703 255.19 164.654 255.526 164.529 255.835Z" fill="#455A64"/>
<path d="M164.491 267.027C166.315 270.91 170.92 275.742 171.281 278.912C171.399 279.69 171.264 280.485 170.894 281.179C170.525 281.873 169.941 282.43 169.23 282.766C169.23 282.766 172.382 284.361 172.24 287.285C172.164 288.794 169.695 290 169.695 290C169.695 290 172.164 291.386 171.869 293.977C171.642 296.047 169.201 296.948 169.201 296.948C169.201 296.948 170.948 299.378 170.037 301.41C168.195 305.53 150.315 305.444 147.589 298.847C146.317 295.771 150.685 295.999 150.685 295.999C150.685 295.999 144.503 294.101 144.427 290.427C144.351 286.753 150.001 287.427 150.001 287.427C150.001 287.427 144.019 285.529 144.304 281.732C144.617 277.745 150.153 279.396 150.153 279.396C150.153 279.396 146.193 276.681 147.105 273.805C148.596 269.059 156.097 275.077 160.028 274.166L162.231 267.701L164.491 267.027Z" fill="#D3766A"/>
<path d="M168.043 272.676C166.647 268.879 171.404 264.132 170.588 260.335C169.486 255.124 163.599 260.193 162.26 267.749V273.796L168.043 272.676Z" fill="#D3766A"/>
<path d="M168.831 297.148C168.888 297.148 168.907 297.224 168.831 297.234C162.718 298.714 156.3 298.3 150.428 296.047C150.239 295.971 150.286 295.638 150.504 295.676C156.509 297.054 162.683 297.55 168.831 297.148Z" fill="#263238"/>
<path d="M169.78 290.038C169.847 290.038 169.856 290.142 169.78 290.161C163.703 291.575 155.945 291.063 149.783 287.617C149.564 287.494 149.498 287.18 149.783 287.294C154.037 289.278 163.988 290.493 169.78 290.038Z" fill="#263238"/>
<path d="M149.811 279.017C155.85 282.092 162.269 282.928 168.983 282.814C169.078 282.814 169.068 282.937 168.983 282.956C165.716 283.905 161.386 283.507 158.12 282.956C155.035 282.473 152.131 281.19 149.697 279.235C149.612 279.149 149.688 278.95 149.811 279.017Z" fill="#263238"/>
<path d="M301.474 379.079C300.648 381.301 260.235 431.527 257.481 432.466C256.446 432.827 248.783 427.369 239.715 420.515C237.759 419.034 235.746 417.487 233.704 415.911C220.477 405.697 206.718 394.524 206.718 394.524L233.657 360.853L259.893 383.133L265.666 388.021C265.666 388.021 289.738 375.681 292.871 375.007C296.005 374.333 302.3 376.849 301.474 379.079Z" fill="#D3766A"/>
<path d="M301.474 379.079C300.648 381.301 260.235 431.527 257.481 432.466C256.209 432.903 245.137 424.758 233.742 415.911L259.893 383.133L265.666 388.021C265.666 388.021 289.738 375.681 292.871 375.007C296.005 374.333 302.3 376.849 301.474 379.079Z" fill="white"/>
<path d="M301.474 379.079C300.648 381.301 260.235 431.527 257.481 432.466C256.446 432.827 248.783 427.369 239.715 420.515L265.676 388.059C265.676 388.059 289.747 375.719 292.881 375.045C296.014 374.371 302.3 376.849 301.474 379.079Z" fill="#068932"/>
<path d="M298.882 378.177C291.903 386.436 264.527 420.373 258.25 429.058C258.25 429.134 258.25 429.172 258.307 429.106C265.401 421.075 292.491 386.911 299.024 378.291C299.157 378.111 299.034 378.007 298.882 378.177Z" fill="#263238"/>
<path d="M288.475 376.82C287.703 377.731 287.127 378.791 286.784 379.934C286.441 381.078 286.337 382.28 286.481 383.465C286.728 385.613 287.797 387.582 289.462 388.961C289.51 388.961 289.586 388.904 289.538 388.857C288.103 387.228 287.235 385.179 287.064 383.016C286.893 380.852 287.428 378.692 288.589 376.858C288.587 376.846 288.582 376.834 288.574 376.824C288.566 376.814 288.556 376.807 288.544 376.803C288.532 376.799 288.519 376.799 288.507 376.802C288.495 376.805 288.483 376.811 288.475 376.82Z" fill="#263238"/>
<path d="M269.142 385.468C266.388 388.8 264.394 393.66 265.505 397.97C265.505 398.141 265.78 398.084 265.809 397.97C266.636 393.78 267.909 389.691 269.607 385.772C269.647 385.71 269.662 385.635 269.646 385.563C269.631 385.491 269.588 385.428 269.526 385.387C269.465 385.347 269.39 385.333 269.317 385.348C269.245 385.363 269.182 385.406 269.142 385.468Z" fill="#263238"/>
<path d="M272.237 383.683C269.484 387.015 267.49 391.875 268.601 396.185C268.601 396.356 268.876 396.29 268.904 396.185C269.731 391.995 271.005 387.906 272.703 383.987C272.743 383.925 272.757 383.85 272.742 383.778C272.727 383.706 272.684 383.643 272.622 383.603C272.56 383.562 272.485 383.548 272.413 383.563C272.341 383.578 272.278 383.622 272.237 383.683Z" fill="#263238"/>
<path d="M275.361 381.899C272.598 385.231 270.614 390.091 271.715 394.401C271.715 394.571 271.991 394.505 272.019 394.401C272.847 390.214 274.12 386.128 275.817 382.212C275.838 382.182 275.852 382.148 275.86 382.113C275.867 382.077 275.868 382.041 275.861 382.005C275.855 381.969 275.841 381.935 275.821 381.905C275.802 381.874 275.776 381.848 275.746 381.827C275.716 381.807 275.682 381.792 275.647 381.785C275.611 381.777 275.575 381.777 275.539 381.783C275.503 381.79 275.469 381.804 275.439 381.823C275.408 381.843 275.382 381.869 275.361 381.899Z" fill="#263238"/>
<path d="M278.466 380.114C275.703 383.446 273.719 388.306 274.82 392.616C274.82 392.787 275.105 392.72 275.134 392.616C275.96 388.429 277.233 384.343 278.932 380.427C278.973 380.366 278.989 380.29 278.974 380.217C278.96 380.144 278.917 380.08 278.856 380.038C278.794 379.997 278.718 379.981 278.645 379.996C278.572 380.01 278.508 380.052 278.466 380.114Z" fill="#263238"/>
<path d="M251.983 420.486C248.945 424.283 254.832 429.03 257.871 425.233C260.909 421.436 255.012 416.689 251.983 420.486Z" fill="white"/>
<path d="M263.074 374.589C260.292 375.159 259.941 378.386 260.567 380.655C261.705 384.469 263.828 387.917 266.72 390.651C266.731 390.665 266.745 390.676 266.76 390.684C266.776 390.691 266.793 390.695 266.811 390.695C266.828 390.695 266.845 390.691 266.861 390.684C266.877 390.676 266.89 390.665 266.901 390.651C266.975 390.69 267.057 390.71 267.141 390.711C267.225 390.711 267.307 390.691 267.382 390.653C267.456 390.615 267.52 390.56 267.569 390.491C267.617 390.423 267.649 390.345 267.66 390.262C267.936 386.531 268.686 382.573 267.803 378.871C267.29 376.668 265.714 374.058 263.074 374.589ZM266.872 384.49C266.777 386.332 266.597 388.154 266.578 389.996C265.324 388.084 264.168 386.11 263.112 384.082C262.617 383.09 262.189 382.065 261.83 381.016C261.308 379.393 261.156 373.82 265.087 376.431C267.309 377.874 267.024 382.297 266.92 384.49H266.872Z" fill="#263238"/>
<path d="M261.232 400.02C264.081 397.457 265.647 393.755 267.518 390.528C267.553 390.453 267.57 390.371 267.568 390.289C267.565 390.206 267.543 390.125 267.503 390.053C267.463 389.981 267.407 389.919 267.338 389.873C267.27 389.827 267.192 389.797 267.11 389.787C267.11 389.711 267.062 389.645 266.977 389.664C263.045 390.298 259.351 391.958 256.266 394.476C254.5 395.976 252.952 398.872 254.946 400.903C256.94 402.934 259.589 401.53 261.232 400.02ZM257.681 400.514C252.933 400.466 256.209 395.948 257.557 394.894C258.443 394.228 259.372 393.622 260.339 393.081C262.352 391.992 264.418 391.007 266.531 390.129C265.515 391.667 264.631 393.271 263.682 394.875C262.533 396.726 260.283 400.542 257.681 400.514Z" fill="#263238"/>
<path d="M258.497 378.092L230.457 415.901L135.881 350.278L126.756 343.956C126.756 343.956 124.173 345.693 120.29 347.839C114.887 350.82 106.996 354.598 99.9691 355.632C88.2326 357.369 70.5329 357.18 60.6291 343.956C52.292 332.812 54.9318 318.279 54.9318 318.279L67.8267 312.744C67.8267 312.744 98.3454 287.332 118.153 286.563C126.547 286.231 138.768 292.591 150.087 299.236C161.405 305.881 258.497 378.092 258.497 378.092Z" fill="#37474F"/>
<path d="M126.756 343.956C126.756 343.956 124.173 345.694 120.29 347.839C113.415 339.618 98.8582 324.677 98.4499 324.107L126.756 343.956Z" fill="#263238"/>
<path d="M78.9935 304.239C77.1703 305.501 75.4042 306.849 73.6 308.15C71.7959 309.45 70.0107 310.627 68.3205 312.023C66.6303 313.418 64.9876 314.956 63.3828 316.484C62.6042 317.225 61.8255 317.965 61.0754 318.734C60.2837 319.47 59.5503 320.267 58.8819 321.117C58.8249 321.193 58.9389 321.288 59.0149 321.24C59.87 320.632 60.6852 319.969 61.4552 319.256L64.0095 317.082C65.6522 315.687 67.3235 314.339 68.9567 312.934C70.5899 311.529 72.0902 310.029 73.7045 308.624C75.3187 307.219 77.2463 305.72 79.041 304.296C79.06 304.267 79.0315 304.21 78.9935 304.239Z" fill="#263238"/>
<path d="M251.917 376.735C250.094 378.7 248.413 380.807 246.713 382.876C245.014 384.946 243.323 387.053 241.643 389.151C238.281 393.347 234.891 397.524 231.587 401.767C229.764 404.102 227.979 406.447 226.288 408.877C226.212 408.981 226.383 409.105 226.478 409.01C230.087 405.032 233.401 400.789 236.753 396.603C240.104 392.417 243.456 388.183 246.761 383.93C248.565 381.604 250.426 379.288 252.078 376.858C252.088 376.837 252.09 376.812 252.084 376.79C252.078 376.767 252.065 376.747 252.046 376.733C252.028 376.718 252.005 376.711 251.981 376.711C251.958 376.711 251.935 376.72 251.917 376.735Z" fill="#263238"/>
<path d="M180.131 380.854C175.383 377.152 164.719 369.909 159.839 366.435C154.958 362.961 150.134 359.505 145.206 356.145C143.794 355.189 142.373 354.24 140.942 353.297C139.518 352.348 138.037 351.475 136.641 350.497C136.565 350.44 136.489 350.573 136.565 350.63C137.847 351.579 139.053 352.576 140.363 353.525C141.674 354.474 142.756 355.357 143.962 356.249C146.326 357.996 148.71 359.714 151.103 361.442C155.926 364.926 160.798 368.381 165.716 371.751C168.508 373.65 177.111 379.345 179.96 381.149C180.064 381.234 180.273 380.987 180.131 380.854Z" fill="#263238"/>
<path d="M209.785 341.792C205.436 338.194 195.542 331.264 190.965 327.933C186.388 324.601 181.773 321.164 177.139 317.813L163.361 307.865C158.917 304.647 154.483 301.372 149.783 298.524C147.209 296.967 144.57 295.524 141.854 294.224C139.227 292.876 136.489 291.758 133.669 290.883C133.653 290.881 133.637 290.885 133.623 290.893C133.609 290.901 133.598 290.913 133.592 290.928C133.586 290.943 133.584 290.959 133.588 290.975C133.591 290.991 133.6 291.005 133.612 291.015C135.929 292.316 138.36 293.398 140.705 294.651C143.05 295.904 145.31 297.186 147.561 298.543C152.223 301.391 156.629 304.59 161.054 307.77C170.255 314.415 179.428 321.06 188.686 327.534C193.871 331.189 204.202 338.726 209.576 342.077C209.614 342.094 209.656 342.098 209.697 342.087C209.737 342.077 209.772 342.053 209.797 342.019C209.821 341.986 209.833 341.945 209.831 341.904C209.829 341.862 209.813 341.823 209.785 341.792Z" fill="#263238"/>
<path d="M395.1 297.281C385.814 309.858 376.109 324.449 373.773 340.216C373.765 340.269 373.778 340.323 373.808 340.367C373.839 340.41 373.885 340.441 373.937 340.452C373.989 340.463 374.044 340.453 374.089 340.425C374.135 340.397 374.168 340.353 374.182 340.302C375.251 336.001 376.625 331.782 378.293 327.676C384.399 325.996 390.391 324.61 393.6 318.554C396.866 312.327 396.449 304.201 395.831 297.423C395.784 297.053 395.29 297.043 395.1 297.281Z" fill="#068932"/>
<path d="M378.379 327.553C382.557 318.193 387.874 308.795 394.721 301.097C394.768 301.049 394.834 301.097 394.796 301.173C390.334 306.659 386.953 312.63 383.639 318.696C386.716 315.583 390.087 312.782 393.002 309.469C393.059 309.412 393.144 309.469 393.097 309.564C390.248 313.038 387.039 316.807 383.269 319.38C382.262 321.24 381.243 323.107 380.211 324.98C380.458 324.838 380.724 324.715 380.98 324.582C381.028 324.582 381.066 324.629 381.028 324.648C380.734 324.8 380.449 324.952 380.154 325.075C379.67 325.958 379.205 326.841 378.683 327.724C378.588 327.923 378.293 327.752 378.379 327.553Z" fill="#263238"/>
<path d="M381.484 324.278C383.98 322.883 386.365 321.296 388.615 319.532C388.672 319.484 388.767 319.532 388.7 319.617C386.524 321.502 384.137 323.129 381.588 324.468C381.436 324.525 381.37 324.354 381.484 324.278Z" fill="#263238"/>
<path d="M372.7 337.871C372.7 337.917 372.718 337.96 372.75 337.992C372.782 338.024 372.826 338.042 372.871 338.042C372.917 338.042 372.96 338.024 372.992 337.992C373.024 337.96 373.042 337.917 373.042 337.871C373.042 332.679 373.042 327.429 373.118 322.246C374.448 319.56 377.306 318.07 379.29 315.924C380.719 314.349 381.964 312.616 383.003 310.76C385.39 306.326 386.85 301.452 387.295 296.436C387.846 290.883 385.738 272.552 383.392 273.188C382.177 273.52 378.246 282.595 377.211 285.595C375.52 290.536 374.28 295.619 373.507 300.783C371.608 313.029 371.77 325.578 372.7 337.871Z" fill="#068932"/>
<path d="M372.662 315.469C372.947 308.9 374.429 302.264 375.815 295.895C377.306 289.022 379.053 282.558 382.595 276.435C382.652 276.321 382.823 276.435 382.766 276.539C380.411 281.302 378.586 286.31 377.325 291.471C377.562 291.101 377.847 290.75 378.094 290.399C378.189 290.266 378.417 290.399 378.322 290.531C378.008 291.089 377.639 291.614 377.22 292.098H377.173C375.957 297.005 375.084 302.027 374.324 307.03L374.495 306.84C374.495 306.792 374.599 306.84 374.571 306.897L374.267 307.39C373.897 309.934 373.545 312.469 373.194 314.985C377.724 311.121 381.588 306.555 383.772 300.935C381.636 306.764 378.265 311.937 373.08 315.478C372.998 316.149 372.903 316.823 372.795 317.5C372.795 317.643 372.558 317.605 372.558 317.5C372.558 316.902 372.558 316.304 372.615 315.697C372.599 315.68 372.588 315.66 372.582 315.638C372.576 315.616 372.575 315.593 372.58 315.57C372.584 315.548 372.594 315.527 372.609 315.509C372.623 315.492 372.641 315.478 372.662 315.469Z" fill="#263238"/>
<path d="M374.789 305.947C378.326 300.948 381.414 295.646 384.019 290.104C384.019 290.038 384.152 290.104 384.123 290.104C382.057 295.93 378.956 301.336 374.97 306.061C374.884 306.175 374.723 306.052 374.789 305.947Z" fill="#263238"/>
<path d="M379.395 288.794C380.819 286.259 382.338 283.791 383.687 281.2C383.687 281.133 383.82 281.2 383.791 281.266C382.684 283.963 381.283 286.529 379.613 288.917C379.597 288.946 379.57 288.968 379.537 288.977C379.505 288.985 379.471 288.981 379.442 288.965C379.413 288.949 379.392 288.921 379.383 288.889C379.374 288.857 379.378 288.823 379.395 288.794Z" fill="#263238"/>
<path d="M369.177 322.854C369.11 326.296 368.706 329.723 367.972 333.087C368.019 333.457 368.076 333.827 368.133 334.207C369.192 330.496 369.804 326.672 369.956 322.816C369.989 322.763 370.006 322.702 370.006 322.64C370.006 322.578 369.989 322.517 369.956 322.465C370.105 317.291 369.72 312.115 368.807 307.02C367.202 297.47 363.689 288.31 357.023 281.162C356.969 281.114 356.904 281.079 356.834 281.06C356.764 281.042 356.69 281.039 356.619 281.054C356.548 281.069 356.482 281.1 356.425 281.145C356.368 281.19 356.323 281.248 356.292 281.314C353.605 288.139 354.545 296.293 356.833 303.147C358.077 306.839 359.855 310.328 362.113 313.504C364.411 316.684 367.326 319.351 369.177 322.854Z" fill="#068932"/>
<path d="M357.83 284.323C364.145 294.566 368.532 306.707 369.073 318.801C369.073 319.009 368.722 319.066 368.693 318.801C368.541 317.718 368.37 316.636 368.199 315.564C365.459 313.138 363.052 310.361 361.04 307.305C361.04 307.248 361.087 307.182 361.125 307.229C363.292 309.897 365.616 312.433 368.086 314.823C367.63 312.156 367.136 309.517 366.462 306.925C366.291 306.735 366.129 306.536 365.968 306.346C365.807 306.156 366.034 306.023 366.148 306.156L366.3 306.318C365.411 302.775 364.311 299.288 363.005 295.876C361.401 293.977 359.606 292.306 358.429 290C358.429 289.943 358.476 289.905 358.514 289.952C359.464 291.272 360.366 292.601 361.429 293.825C361.856 294.309 362.322 294.775 362.768 295.24C361.312 291.53 359.585 287.932 357.602 284.475C357.593 284.446 357.593 284.414 357.604 284.385C357.614 284.355 357.633 284.33 357.659 284.313C357.685 284.296 357.715 284.288 357.746 284.289C357.777 284.291 357.807 284.303 357.83 284.323Z" fill="#263238"/>
<path d="M359.112 296.958C361.154 299.701 363.471 302.321 365.37 305.15C365.427 305.236 365.303 305.321 365.237 305.254C362.817 302.783 360.712 300.021 358.97 297.034C358.913 296.948 359.046 296.872 359.112 296.958Z" fill="#263238"/>
<path d="M365.655 305.786L365.74 305.881C365.807 305.938 365.74 306.033 365.645 305.967L365.56 305.881C365.503 305.824 365.598 305.729 365.655 305.786Z" fill="#263238"/>
<path d="M347.945 304.011C348.693 309.725 350.992 315.126 354.592 319.626C356.082 321.39 357.922 322.825 359.995 323.841C362.331 324.999 364.743 326.328 367.202 327.278C368.35 330.205 369.206 333.238 369.757 336.334C369.833 336.077 369.909 335.802 369.985 335.536C368.437 322.199 359.805 310.798 348.762 303.479C348.675 303.427 348.575 303.4 348.473 303.402C348.371 303.403 348.272 303.434 348.187 303.489C348.102 303.545 348.034 303.623 347.991 303.715C347.948 303.808 347.933 303.91 347.945 304.011Z" fill="#068932"/>
<path d="M351.763 307.951C351.687 307.875 351.763 307.742 351.877 307.799C357.941 312.312 362.778 318.271 365.949 325.132C366.025 325.322 365.778 325.474 365.674 325.294C365.161 324.401 364.629 323.519 364.097 322.664C361.572 322.19 359.188 320.414 357.318 318.734C357.261 318.687 357.318 318.611 357.393 318.658C358.356 319.539 359.429 320.292 360.584 320.899C361.61 321.421 362.711 321.753 363.784 322.171C362.834 320.69 361.885 319.266 360.859 317.889C358.13 316.853 355.57 315.417 353.263 313.627C353.196 313.627 353.263 313.456 353.339 313.504C355.615 314.894 357.964 316.161 360.375 317.301C358.837 315.27 357.179 313.333 355.409 311.501C354.545 311.055 353.681 310.599 352.855 310.115C352.843 310.105 352.835 310.092 352.831 310.077C352.827 310.062 352.828 310.047 352.833 310.032C352.838 310.018 352.848 310.006 352.86 309.997C352.872 309.988 352.887 309.983 352.902 309.982C353.593 310.217 354.253 310.536 354.868 310.931C353.899 309.916 352.864 308.919 351.763 307.951Z" fill="#263238"/>
<path d="M352 312.554C352.149 312.642 352.289 312.743 352.418 312.858C352.465 312.858 352.418 312.944 352.37 312.925C352.215 312.855 352.065 312.773 351.924 312.678C351.914 312.666 351.907 312.65 351.906 312.634C351.904 312.618 351.908 312.602 351.917 312.588C351.925 312.574 351.938 312.564 351.953 312.558C351.968 312.552 351.984 312.55 352 312.554Z" fill="#263238"/>
<path d="M387.229 365.22H356.976L359.416 337.672L359.957 331.597H384.247L384.788 337.672L387.229 365.22Z" fill="#455A64"/>
<path d="M384.788 337.672H359.416L359.957 331.597H384.247L384.788 337.672Z" fill="#263238"/>
<path d="M385.7 327.354H358.505V333.362H385.7V327.354Z" fill="#455A64"/>
</svg>
